<mxfile host="app.diagrams.net" modified="2021-09-27T12:11:15.886Z" agent="5.0 (Macintosh; Intel Mac OS X 10_15_7) AppleWebKit/537.36 (KHTML, like Gecko) Chrome/93.0.4577.63 Safari/537.36" etag="1ul25kV8AK12U4X5SKIB" version="14.9.9" type="github">
  <diagram id="QkFERfZRdXp7OSpuvi2J" name="第 1 页">
    <mxGraphModel dx="1527" dy="989" grid="0" gridSize="10" guides="1" tooltips="1" connect="1" arrows="1" fold="1" page="1" pageScale="1" pageWidth="4681" pageHeight="3300" background="none" math="0" shadow="0">
      <root>
        <mxCell id="0" />
        <mxCell id="1" parent="0" />
        <mxCell id="9_KCnbI3byb7aFg2Pdaz-324" value="下拉加载" style="ellipse;whiteSpace=wrap;html=1;aspect=fixed;dashed=1;fontSize=16;fontColor=#6C8EBF;strokeColor=#6C8EBF;strokeWidth=2;fillColor=#FFFFFF;opacity=60;" vertex="1" parent="1">
          <mxGeometry x="2764" y="1545" width="101" height="101" as="geometry" />
        </mxCell>
        <mxCell id="9_KCnbI3byb7aFg2Pdaz-4" style="edgeStyle=orthogonalEdgeStyle;rounded=0;orthogonalLoop=1;jettySize=auto;html=1;exitX=0.5;exitY=1;exitDx=0;exitDy=0;entryX=0.5;entryY=0;entryDx=0;entryDy=0;strokeColor=#6C8EBF;" edge="1" parent="1" source="9_KCnbI3byb7aFg2Pdaz-2" target="9_KCnbI3byb7aFg2Pdaz-3">
          <mxGeometry relative="1" as="geometry" />
        </mxCell>
        <mxCell id="9_KCnbI3byb7aFg2Pdaz-2" value="&lt;font color=&quot;#6c8ebf&quot; style=&quot;font-size: 14px&quot;&gt;打开链接&lt;/font&gt;" style="rounded=1;whiteSpace=wrap;html=1;strokeColor=#6c8ebf;fillColor=none;dashed=1;strokeWidth=2;" vertex="1" parent="1">
          <mxGeometry x="550" y="37" width="120" height="60" as="geometry" />
        </mxCell>
        <mxCell id="9_KCnbI3byb7aFg2Pdaz-9" style="edgeStyle=orthogonalEdgeStyle;rounded=0;orthogonalLoop=1;jettySize=auto;html=1;exitX=0;exitY=0.5;exitDx=0;exitDy=0;entryX=1;entryY=0.5;entryDx=0;entryDy=0;fontColor=#6C8EBF;strokeColor=#6C8EBF;" edge="1" parent="1" source="9_KCnbI3byb7aFg2Pdaz-3" target="9_KCnbI3byb7aFg2Pdaz-8">
          <mxGeometry relative="1" as="geometry" />
        </mxCell>
        <mxCell id="9_KCnbI3byb7aFg2Pdaz-10" value="无" style="edgeLabel;html=1;align=center;verticalAlign=middle;resizable=0;points=[];fontColor=#6C8EBF;" vertex="1" connectable="0" parent="9_KCnbI3byb7aFg2Pdaz-9">
          <mxGeometry x="0.0909" y="-2" relative="1" as="geometry">
            <mxPoint as="offset" />
          </mxGeometry>
        </mxCell>
        <mxCell id="9_KCnbI3byb7aFg2Pdaz-305" style="edgeStyle=orthogonalEdgeStyle;rounded=0;orthogonalLoop=1;jettySize=auto;html=1;exitX=0.5;exitY=1;exitDx=0;exitDy=0;entryX=0.5;entryY=0;entryDx=0;entryDy=0;fontSize=16;fontColor=#6C8EBF;strokeColor=#6C8EBF;strokeWidth=1;" edge="1" parent="1" source="9_KCnbI3byb7aFg2Pdaz-3" target="9_KCnbI3byb7aFg2Pdaz-11">
          <mxGeometry relative="1" as="geometry" />
        </mxCell>
        <mxCell id="9_KCnbI3byb7aFg2Pdaz-312" style="edgeStyle=orthogonalEdgeStyle;rounded=0;orthogonalLoop=1;jettySize=auto;html=1;fontSize=16;fontColor=#6C8EBF;strokeColor=#6C8EBF;strokeWidth=1;" edge="1" parent="1" source="9_KCnbI3byb7aFg2Pdaz-3">
          <mxGeometry relative="1" as="geometry">
            <mxPoint x="730.5" y="198" as="targetPoint" />
          </mxGeometry>
        </mxCell>
        <mxCell id="9_KCnbI3byb7aFg2Pdaz-3" value="&lt;font color=&quot;#6c8ebf&quot; style=&quot;font-size: 16px&quot;&gt;ext_id&lt;/font&gt;" style="rhombus;whiteSpace=wrap;html=1;dashed=1;strokeWidth=2;fillColor=none;strokeColor=#6C8EBF;" vertex="1" parent="1">
          <mxGeometry x="570" y="158" width="80" height="80" as="geometry" />
        </mxCell>
        <mxCell id="9_KCnbI3byb7aFg2Pdaz-25" style="edgeStyle=orthogonalEdgeStyle;rounded=0;orthogonalLoop=1;jettySize=auto;html=1;exitX=0.5;exitY=1;exitDx=0;exitDy=0;fontColor=#6C8EBF;strokeColor=#6C8EBF;" edge="1" parent="1" source="9_KCnbI3byb7aFg2Pdaz-6" target="9_KCnbI3byb7aFg2Pdaz-24">
          <mxGeometry relative="1" as="geometry" />
        </mxCell>
        <mxCell id="9_KCnbI3byb7aFg2Pdaz-6" value="&lt;font color=&quot;#6c8ebf&quot;&gt;填写信息收集卡&lt;/font&gt;" style="rounded=1;whiteSpace=wrap;html=1;dashed=1;strokeColor=#6C8EBF;strokeWidth=2;fillColor=none;" vertex="1" parent="1">
          <mxGeometry x="550" y="425" width="120" height="60" as="geometry" />
        </mxCell>
        <mxCell id="9_KCnbI3byb7aFg2Pdaz-18" style="edgeStyle=orthogonalEdgeStyle;rounded=0;orthogonalLoop=1;jettySize=auto;html=1;exitX=0;exitY=0.5;exitDx=0;exitDy=0;entryX=1;entryY=0.5;entryDx=0;entryDy=0;fontColor=#6C8EBF;strokeColor=#6C8EBF;" edge="1" parent="1" source="9_KCnbI3byb7aFg2Pdaz-8" target="9_KCnbI3byb7aFg2Pdaz-17">
          <mxGeometry relative="1" as="geometry" />
        </mxCell>
        <mxCell id="9_KCnbI3byb7aFg2Pdaz-19" value="code" style="edgeLabel;html=1;align=center;verticalAlign=middle;resizable=0;points=[];fontColor=#6C8EBF;" vertex="1" connectable="0" parent="9_KCnbI3byb7aFg2Pdaz-18">
          <mxGeometry x="-0.0294" y="2" relative="1" as="geometry">
            <mxPoint as="offset" />
          </mxGeometry>
        </mxCell>
        <mxCell id="9_KCnbI3byb7aFg2Pdaz-8" value="微信授权" style="rounded=1;whiteSpace=wrap;html=1;dashed=1;fontColor=#6C8EBF;strokeColor=#6C8EBF;strokeWidth=2;fillColor=none;" vertex="1" parent="1">
          <mxGeometry x="407" y="167" width="120" height="60" as="geometry" />
        </mxCell>
        <mxCell id="9_KCnbI3byb7aFg2Pdaz-306" style="edgeStyle=orthogonalEdgeStyle;rounded=0;orthogonalLoop=1;jettySize=auto;html=1;exitX=0.5;exitY=1;exitDx=0;exitDy=0;entryX=0.5;entryY=0;entryDx=0;entryDy=0;fontSize=16;fontColor=#6C8EBF;strokeColor=#6C8EBF;strokeWidth=1;" edge="1" parent="1" source="9_KCnbI3byb7aFg2Pdaz-11" target="9_KCnbI3byb7aFg2Pdaz-6">
          <mxGeometry relative="1" as="geometry" />
        </mxCell>
        <mxCell id="9_KCnbI3byb7aFg2Pdaz-11" value="获取ext_id" style="rounded=1;whiteSpace=wrap;html=1;dashed=1;fontColor=#6C8EBF;strokeColor=#6C8EBF;strokeWidth=2;fillColor=none;" vertex="1" parent="1">
          <mxGeometry x="550" y="292" width="120" height="58" as="geometry" />
        </mxCell>
        <mxCell id="9_KCnbI3byb7aFg2Pdaz-22" style="edgeStyle=orthogonalEdgeStyle;rounded=0;orthogonalLoop=1;jettySize=auto;html=1;exitX=0.5;exitY=1;exitDx=0;exitDy=0;entryX=0.5;entryY=0;entryDx=0;entryDy=0;fontColor=#6C8EBF;strokeColor=#6C8EBF;" edge="1" parent="1" source="9_KCnbI3byb7aFg2Pdaz-17" target="9_KCnbI3byb7aFg2Pdaz-20">
          <mxGeometry relative="1" as="geometry" />
        </mxCell>
        <mxCell id="9_KCnbI3byb7aFg2Pdaz-17" value="域名重定向" style="rounded=1;whiteSpace=wrap;html=1;dashed=1;fontColor=#6C8EBF;strokeColor=#6C8EBF;strokeWidth=2;fillColor=none;" vertex="1" parent="1">
          <mxGeometry x="237" y="167" width="120" height="60" as="geometry" />
        </mxCell>
        <mxCell id="9_KCnbI3byb7aFg2Pdaz-307" style="edgeStyle=orthogonalEdgeStyle;rounded=0;orthogonalLoop=1;jettySize=auto;html=1;entryX=0;entryY=0.5;entryDx=0;entryDy=0;fontSize=16;fontColor=#6C8EBF;strokeColor=#6C8EBF;strokeWidth=1;" edge="1" parent="1" source="9_KCnbI3byb7aFg2Pdaz-20" target="9_KCnbI3byb7aFg2Pdaz-11">
          <mxGeometry relative="1" as="geometry" />
        </mxCell>
        <mxCell id="9_KCnbI3byb7aFg2Pdaz-20" value="获取UnionID" style="rounded=1;whiteSpace=wrap;html=1;dashed=1;fontColor=#6C8EBF;strokeColor=#6C8EBF;strokeWidth=2;fillColor=none;" vertex="1" parent="1">
          <mxGeometry x="237" y="291" width="120" height="60" as="geometry" />
        </mxCell>
        <mxCell id="9_KCnbI3byb7aFg2Pdaz-27" style="edgeStyle=orthogonalEdgeStyle;rounded=0;orthogonalLoop=1;jettySize=auto;html=1;exitX=0.5;exitY=1;exitDx=0;exitDy=0;entryX=0.5;entryY=0;entryDx=0;entryDy=0;fontColor=#6C8EBF;strokeColor=#6C8EBF;" edge="1" parent="1" source="9_KCnbI3byb7aFg2Pdaz-24" target="9_KCnbI3byb7aFg2Pdaz-26">
          <mxGeometry relative="1" as="geometry" />
        </mxCell>
        <mxCell id="9_KCnbI3byb7aFg2Pdaz-24" value="消息写入kafka" style="rounded=1;whiteSpace=wrap;html=1;dashed=1;fontColor=#6C8EBF;strokeColor=#6C8EBF;strokeWidth=2;fillColor=none;" vertex="1" parent="1">
          <mxGeometry x="550" y="533" width="120" height="60" as="geometry" />
        </mxCell>
        <mxCell id="9_KCnbI3byb7aFg2Pdaz-26" value="后台DB" style="rounded=1;whiteSpace=wrap;html=1;dashed=1;fontColor=#6C8EBF;strokeColor=#6C8EBF;strokeWidth=2;fillColor=none;" vertex="1" parent="1">
          <mxGeometry x="550" y="646" width="120" height="60" as="geometry" />
        </mxCell>
        <mxCell id="9_KCnbI3byb7aFg2Pdaz-30" style="edgeStyle=orthogonalEdgeStyle;rounded=0;orthogonalLoop=1;jettySize=auto;html=1;exitX=0.5;exitY=1;exitDx=0;exitDy=0;entryX=0.5;entryY=0;entryDx=0;entryDy=0;fontColor=#6C8EBF;strokeColor=#6C8EBF;" edge="1" parent="1" source="9_KCnbI3byb7aFg2Pdaz-28" target="9_KCnbI3byb7aFg2Pdaz-29">
          <mxGeometry relative="1" as="geometry" />
        </mxCell>
        <mxCell id="9_KCnbI3byb7aFg2Pdaz-31" value="teacher_Id" style="edgeLabel;html=1;align=center;verticalAlign=middle;resizable=0;points=[];fontColor=#6C8EBF;" vertex="1" connectable="0" parent="9_KCnbI3byb7aFg2Pdaz-30">
          <mxGeometry x="-0.0141" y="2" relative="1" as="geometry">
            <mxPoint as="offset" />
          </mxGeometry>
        </mxCell>
        <mxCell id="9_KCnbI3byb7aFg2Pdaz-28" value="侧边栏查询" style="rounded=1;whiteSpace=wrap;html=1;dashed=1;fontColor=#6C8EBF;strokeColor=#6C8EBF;strokeWidth=2;fillColor=none;" vertex="1" parent="1">
          <mxGeometry x="773" y="425" width="120" height="60" as="geometry" />
        </mxCell>
        <mxCell id="9_KCnbI3byb7aFg2Pdaz-33" style="edgeStyle=orthogonalEdgeStyle;rounded=0;orthogonalLoop=1;jettySize=auto;html=1;exitX=0.5;exitY=1;exitDx=0;exitDy=0;fontColor=#6C8EBF;strokeColor=#6C8EBF;" edge="1" parent="1" source="9_KCnbI3byb7aFg2Pdaz-29" target="9_KCnbI3byb7aFg2Pdaz-32">
          <mxGeometry relative="1" as="geometry" />
        </mxCell>
        <mxCell id="9_KCnbI3byb7aFg2Pdaz-29" value="司空客户信息查询" style="rounded=1;whiteSpace=wrap;html=1;dashed=1;fontColor=#6C8EBF;strokeColor=#6C8EBF;strokeWidth=2;fillColor=none;" vertex="1" parent="1">
          <mxGeometry x="773" y="533" width="120" height="60" as="geometry" />
        </mxCell>
        <mxCell id="9_KCnbI3byb7aFg2Pdaz-34" style="edgeStyle=orthogonalEdgeStyle;rounded=0;orthogonalLoop=1;jettySize=auto;html=1;entryX=1;entryY=0.5;entryDx=0;entryDy=0;fontColor=#6C8EBF;strokeColor=#6C8EBF;" edge="1" parent="1" source="9_KCnbI3byb7aFg2Pdaz-32" target="9_KCnbI3byb7aFg2Pdaz-26">
          <mxGeometry relative="1" as="geometry" />
        </mxCell>
        <mxCell id="9_KCnbI3byb7aFg2Pdaz-32" value="管理后台查询接口" style="rounded=1;whiteSpace=wrap;html=1;dashed=1;fontColor=#6C8EBF;strokeColor=#6C8EBF;strokeWidth=2;fillColor=none;" vertex="1" parent="1">
          <mxGeometry x="773" y="646" width="120" height="60" as="geometry" />
        </mxCell>
        <mxCell id="9_KCnbI3byb7aFg2Pdaz-38" style="edgeStyle=orthogonalEdgeStyle;rounded=0;orthogonalLoop=1;jettySize=auto;html=1;exitX=0.5;exitY=1;exitDx=0;exitDy=0;entryX=0.5;entryY=0;entryDx=0;entryDy=0;fontColor=#6C8EBF;strokeColor=#6C8EBF;" edge="1" parent="1" source="9_KCnbI3byb7aFg2Pdaz-35" target="9_KCnbI3byb7aFg2Pdaz-36">
          <mxGeometry relative="1" as="geometry" />
        </mxCell>
        <mxCell id="9_KCnbI3byb7aFg2Pdaz-42" style="edgeStyle=orthogonalEdgeStyle;rounded=0;orthogonalLoop=1;jettySize=auto;html=1;exitX=0.5;exitY=1;exitDx=0;exitDy=0;entryX=0.5;entryY=0;entryDx=0;entryDy=0;fontColor=#6C8EBF;strokeColor=#6C8EBF;" edge="1" parent="1" source="9_KCnbI3byb7aFg2Pdaz-35" target="9_KCnbI3byb7aFg2Pdaz-37">
          <mxGeometry relative="1" as="geometry" />
        </mxCell>
        <mxCell id="9_KCnbI3byb7aFg2Pdaz-35" value="&lt;font style=&quot;font-size: 16px&quot;&gt;收集卡填写&lt;/font&gt;" style="rounded=1;whiteSpace=wrap;html=1;dashed=1;fontColor=#6C8EBF;strokeColor=#6C8EBF;strokeWidth=2;fillColor=none;" vertex="1" parent="1">
          <mxGeometry x="1327" y="72" width="120" height="60" as="geometry" />
        </mxCell>
        <mxCell id="9_KCnbI3byb7aFg2Pdaz-36" value="小程序" style="rounded=1;whiteSpace=wrap;html=1;dashed=1;fontColor=#6C8EBF;strokeColor=#6C8EBF;strokeWidth=2;fillColor=none;" vertex="1" parent="1">
          <mxGeometry x="1234" y="216" width="120" height="60" as="geometry" />
        </mxCell>
        <mxCell id="9_KCnbI3byb7aFg2Pdaz-37" value="H5" style="rounded=1;whiteSpace=wrap;html=1;dashed=1;fontColor=#6C8EBF;strokeColor=#6C8EBF;strokeWidth=2;fillColor=none;" vertex="1" parent="1">
          <mxGeometry x="1421" y="216" width="120" height="60" as="geometry" />
        </mxCell>
        <mxCell id="9_KCnbI3byb7aFg2Pdaz-46" style="edgeStyle=orthogonalEdgeStyle;rounded=0;orthogonalLoop=1;jettySize=auto;html=1;exitX=0.5;exitY=1;exitDx=0;exitDy=0;fontColor=#6C8EBF;strokeColor=#6C8EBF;" edge="1" parent="1" source="9_KCnbI3byb7aFg2Pdaz-43" target="9_KCnbI3byb7aFg2Pdaz-45">
          <mxGeometry relative="1" as="geometry" />
        </mxCell>
        <mxCell id="9_KCnbI3byb7aFg2Pdaz-43" value="司空后台" style="rounded=1;whiteSpace=wrap;html=1;dashed=1;fontColor=#6C8EBF;strokeColor=#6C8EBF;strokeWidth=2;fillColor=none;" vertex="1" parent="1">
          <mxGeometry x="1844" y="161" width="120" height="60" as="geometry" />
        </mxCell>
        <mxCell id="9_KCnbI3byb7aFg2Pdaz-47" style="edgeStyle=orthogonalEdgeStyle;rounded=0;orthogonalLoop=1;jettySize=auto;html=1;exitX=0.5;exitY=1;exitDx=0;exitDy=0;entryX=0.5;entryY=0;entryDx=0;entryDy=0;entryPerimeter=0;fontColor=#6C8EBF;strokeColor=#6C8EBF;" edge="1" parent="1" source="9_KCnbI3byb7aFg2Pdaz-44" target="9_KCnbI3byb7aFg2Pdaz-45">
          <mxGeometry relative="1" as="geometry" />
        </mxCell>
        <mxCell id="9_KCnbI3byb7aFg2Pdaz-44" value="司空侧边栏" style="rounded=1;whiteSpace=wrap;html=1;dashed=1;fontColor=#6C8EBF;strokeColor=#6C8EBF;strokeWidth=2;fillColor=none;" vertex="1" parent="1">
          <mxGeometry x="2063" y="161" width="120" height="60" as="geometry" />
        </mxCell>
        <mxCell id="9_KCnbI3byb7aFg2Pdaz-50" style="edgeStyle=orthogonalEdgeStyle;rounded=0;orthogonalLoop=1;jettySize=auto;html=1;exitX=0.5;exitY=1;exitDx=0;exitDy=0;exitPerimeter=0;fontColor=#6C8EBF;strokeColor=#6C8EBF;" edge="1" parent="1" source="9_KCnbI3byb7aFg2Pdaz-45" target="9_KCnbI3byb7aFg2Pdaz-48">
          <mxGeometry relative="1" as="geometry" />
        </mxCell>
        <mxCell id="9_KCnbI3byb7aFg2Pdaz-55" value="行为数据" style="edgeLabel;html=1;align=center;verticalAlign=middle;resizable=0;points=[];fontColor=#6C8EBF;" vertex="1" connectable="0" parent="9_KCnbI3byb7aFg2Pdaz-50">
          <mxGeometry x="-0.1986" y="-1" relative="1" as="geometry">
            <mxPoint as="offset" />
          </mxGeometry>
        </mxCell>
        <mxCell id="9_KCnbI3byb7aFg2Pdaz-51" style="edgeStyle=orthogonalEdgeStyle;rounded=0;orthogonalLoop=1;jettySize=auto;html=1;exitX=0.5;exitY=1;exitDx=0;exitDy=0;exitPerimeter=0;entryX=0.5;entryY=0;entryDx=0;entryDy=0;entryPerimeter=0;fontColor=#6C8EBF;strokeColor=#6C8EBF;" edge="1" parent="1" source="9_KCnbI3byb7aFg2Pdaz-45" target="9_KCnbI3byb7aFg2Pdaz-49">
          <mxGeometry relative="1" as="geometry" />
        </mxCell>
        <mxCell id="9_KCnbI3byb7aFg2Pdaz-56" value="PV/UV" style="edgeLabel;html=1;align=center;verticalAlign=middle;resizable=0;points=[];fontColor=#6C8EBF;" vertex="1" connectable="0" parent="9_KCnbI3byb7aFg2Pdaz-51">
          <mxGeometry x="-0.0276" y="1" relative="1" as="geometry">
            <mxPoint x="1" as="offset" />
          </mxGeometry>
        </mxCell>
        <mxCell id="9_KCnbI3byb7aFg2Pdaz-45" value="DB" style="strokeWidth=2;html=1;shape=mxgraph.flowchart.database;whiteSpace=wrap;dashed=1;fontColor=#6C8EBF;fillColor=none;strokeColor=#6C8EBF;" vertex="1" parent="1">
          <mxGeometry x="1960" y="261" width="103" height="98" as="geometry" />
        </mxCell>
        <mxCell id="9_KCnbI3byb7aFg2Pdaz-53" style="edgeStyle=orthogonalEdgeStyle;rounded=0;orthogonalLoop=1;jettySize=auto;html=1;exitX=0.5;exitY=1;exitDx=0;exitDy=0;exitPerimeter=0;entryX=0.5;entryY=0;entryDx=0;entryDy=0;fontColor=#6C8EBF;strokeColor=#6C8EBF;" edge="1" parent="1" source="9_KCnbI3byb7aFg2Pdaz-48" target="9_KCnbI3byb7aFg2Pdaz-52">
          <mxGeometry relative="1" as="geometry" />
        </mxCell>
        <mxCell id="9_KCnbI3byb7aFg2Pdaz-48" value="行为DB" style="strokeWidth=2;html=1;shape=mxgraph.flowchart.database;whiteSpace=wrap;dashed=1;fontColor=#6C8EBF;fillColor=none;strokeColor=#6C8EBF;" vertex="1" parent="1">
          <mxGeometry x="1872" y="399" width="77" height="79" as="geometry" />
        </mxCell>
        <mxCell id="9_KCnbI3byb7aFg2Pdaz-54" style="edgeStyle=orthogonalEdgeStyle;rounded=0;orthogonalLoop=1;jettySize=auto;html=1;exitX=0.5;exitY=1;exitDx=0;exitDy=0;exitPerimeter=0;fontColor=#6C8EBF;strokeColor=#6C8EBF;" edge="1" parent="1" source="9_KCnbI3byb7aFg2Pdaz-49">
          <mxGeometry relative="1" as="geometry">
            <mxPoint x="2014" y="564" as="targetPoint" />
          </mxGeometry>
        </mxCell>
        <mxCell id="9_KCnbI3byb7aFg2Pdaz-57" value="分表查询" style="edgeLabel;html=1;align=center;verticalAlign=middle;resizable=0;points=[];fontColor=#6C8EBF;" vertex="1" connectable="0" parent="9_KCnbI3byb7aFg2Pdaz-54">
          <mxGeometry x="0.7507" y="1" relative="1" as="geometry">
            <mxPoint y="1" as="offset" />
          </mxGeometry>
        </mxCell>
        <mxCell id="9_KCnbI3byb7aFg2Pdaz-49" value="PV&amp;nbsp; DB" style="strokeWidth=2;html=1;shape=mxgraph.flowchart.database;whiteSpace=wrap;dashed=1;fontColor=#6C8EBF;fillColor=none;strokeColor=#6C8EBF;" vertex="1" parent="1">
          <mxGeometry x="2078" y="399" width="77" height="79" as="geometry" />
        </mxCell>
        <mxCell id="9_KCnbI3byb7aFg2Pdaz-52" value="小马BI" style="rounded=1;whiteSpace=wrap;html=1;dashed=1;fontColor=#6C8EBF;strokeColor=#6C8EBF;strokeWidth=2;fillColor=none;" vertex="1" parent="1">
          <mxGeometry x="1954" y="565" width="120" height="60" as="geometry" />
        </mxCell>
        <mxCell id="9_KCnbI3byb7aFg2Pdaz-62" style="edgeStyle=orthogonalEdgeStyle;rounded=0;orthogonalLoop=1;jettySize=auto;html=1;exitX=1;exitY=0.5;exitDx=0;exitDy=0;fontColor=#6C8EBF;strokeColor=#6C8EBF;" edge="1" parent="1" source="9_KCnbI3byb7aFg2Pdaz-58">
          <mxGeometry relative="1" as="geometry">
            <mxPoint x="1530" y="761" as="targetPoint" />
          </mxGeometry>
        </mxCell>
        <mxCell id="9_KCnbI3byb7aFg2Pdaz-64" style="edgeStyle=orthogonalEdgeStyle;rounded=0;orthogonalLoop=1;jettySize=auto;html=1;exitX=0.5;exitY=1;exitDx=0;exitDy=0;entryX=0.5;entryY=0;entryDx=0;entryDy=0;fontColor=#6C8EBF;strokeColor=#6C8EBF;" edge="1" parent="1" source="9_KCnbI3byb7aFg2Pdaz-58" target="9_KCnbI3byb7aFg2Pdaz-63">
          <mxGeometry relative="1" as="geometry" />
        </mxCell>
        <mxCell id="9_KCnbI3byb7aFg2Pdaz-58" value="基础信息" style="rounded=1;whiteSpace=wrap;html=1;dashed=1;fontColor=#6C8EBF;strokeColor=#6C8EBF;strokeWidth=2;fillColor=none;" vertex="1" parent="1">
          <mxGeometry x="1313" y="731" width="120" height="60" as="geometry" />
        </mxCell>
        <mxCell id="9_KCnbI3byb7aFg2Pdaz-69" style="edgeStyle=orthogonalEdgeStyle;rounded=0;orthogonalLoop=1;jettySize=auto;html=1;fontColor=#6C8EBF;strokeColor=#6C8EBF;" edge="1" parent="1" source="9_KCnbI3byb7aFg2Pdaz-60">
          <mxGeometry relative="1" as="geometry">
            <mxPoint x="1433" y="966" as="targetPoint" />
            <Array as="points">
              <mxPoint x="1445" y="966" />
              <mxPoint x="1445" y="966" />
            </Array>
          </mxGeometry>
        </mxCell>
        <mxCell id="9_KCnbI3byb7aFg2Pdaz-72" value="基础数据" style="edgeLabel;html=1;align=center;verticalAlign=middle;resizable=0;points=[];fontColor=#6C8EBF;" vertex="1" connectable="0" parent="9_KCnbI3byb7aFg2Pdaz-69">
          <mxGeometry x="0.1471" y="1" relative="1" as="geometry">
            <mxPoint as="offset" />
          </mxGeometry>
        </mxCell>
        <mxCell id="9_KCnbI3byb7aFg2Pdaz-60" value="消息队列" style="rounded=0;whiteSpace=wrap;html=1;dashed=1;fontColor=#6C8EBF;strokeColor=#6C8EBF;strokeWidth=2;fillColor=none;" vertex="1" parent="1">
          <mxGeometry x="1541" y="725" width="119" height="482" as="geometry" />
        </mxCell>
        <mxCell id="9_KCnbI3byb7aFg2Pdaz-65" style="edgeStyle=orthogonalEdgeStyle;rounded=0;orthogonalLoop=1;jettySize=auto;html=1;exitX=1;exitY=0.5;exitDx=0;exitDy=0;fontColor=#6C8EBF;strokeColor=#6C8EBF;" edge="1" parent="1" source="9_KCnbI3byb7aFg2Pdaz-63">
          <mxGeometry relative="1" as="geometry">
            <mxPoint x="1528" y="862" as="targetPoint" />
          </mxGeometry>
        </mxCell>
        <mxCell id="9_KCnbI3byb7aFg2Pdaz-66" value="注册" style="edgeLabel;html=1;align=center;verticalAlign=middle;resizable=0;points=[];fontColor=#6C8EBF;" vertex="1" connectable="0" parent="9_KCnbI3byb7aFg2Pdaz-65">
          <mxGeometry x="-0.1475" y="1" relative="1" as="geometry">
            <mxPoint as="offset" />
          </mxGeometry>
        </mxCell>
        <mxCell id="9_KCnbI3byb7aFg2Pdaz-63" value="学科获取" style="rounded=1;whiteSpace=wrap;html=1;dashed=1;fontColor=#6C8EBF;strokeColor=#6C8EBF;strokeWidth=2;fillColor=none;" vertex="1" parent="1">
          <mxGeometry x="1313" y="832" width="120" height="60" as="geometry" />
        </mxCell>
        <mxCell id="9_KCnbI3byb7aFg2Pdaz-67" value="课程信息" style="rounded=1;whiteSpace=wrap;html=1;dashed=1;fontColor=#6C8EBF;strokeColor=#6C8EBF;strokeWidth=2;fillColor=none;" vertex="1" parent="1">
          <mxGeometry x="1310" y="936" width="120" height="60" as="geometry" />
        </mxCell>
        <mxCell id="9_KCnbI3byb7aFg2Pdaz-73" value="学习记录" style="rounded=1;whiteSpace=wrap;html=1;dashed=1;fontColor=#6C8EBF;strokeColor=#6C8EBF;strokeWidth=2;fillColor=none;" vertex="1" parent="1">
          <mxGeometry x="1313" y="1042" width="120" height="60" as="geometry" />
        </mxCell>
        <mxCell id="9_KCnbI3byb7aFg2Pdaz-75" value="......" style="rounded=1;whiteSpace=wrap;html=1;dashed=1;fontColor=#6C8EBF;strokeColor=#6C8EBF;strokeWidth=2;fillColor=none;" vertex="1" parent="1">
          <mxGeometry x="1313" y="1147" width="120" height="60" as="geometry" />
        </mxCell>
        <mxCell id="9_KCnbI3byb7aFg2Pdaz-77" style="edgeStyle=orthogonalEdgeStyle;rounded=0;orthogonalLoop=1;jettySize=auto;html=1;exitX=0;exitY=0.75;exitDx=0;exitDy=0;entryX=1;entryY=0.5;entryDx=0;entryDy=0;fontColor=#6C8EBF;strokeColor=#6C8EBF;" edge="1" parent="1">
          <mxGeometry relative="1" as="geometry">
            <mxPoint x="1541" y="1071.9999999999998" as="sourcePoint" />
            <mxPoint x="1433" y="1071.5" as="targetPoint" />
            <Array as="points">
              <mxPoint x="1461" y="1071.5" />
              <mxPoint x="1461" y="1071.5" />
            </Array>
          </mxGeometry>
        </mxCell>
        <mxCell id="9_KCnbI3byb7aFg2Pdaz-79" style="edgeStyle=orthogonalEdgeStyle;rounded=0;orthogonalLoop=1;jettySize=auto;html=1;exitX=0;exitY=0.75;exitDx=0;exitDy=0;entryX=1;entryY=0.5;entryDx=0;entryDy=0;fontColor=#6C8EBF;strokeColor=#6C8EBF;" edge="1" parent="1">
          <mxGeometry relative="1" as="geometry">
            <mxPoint x="1541" y="1174.4999999999998" as="sourcePoint" />
            <mxPoint x="1433" y="1174" as="targetPoint" />
            <Array as="points">
              <mxPoint x="1485" y="1174.5" />
            </Array>
          </mxGeometry>
        </mxCell>
        <mxCell id="9_KCnbI3byb7aFg2Pdaz-85" style="edgeStyle=orthogonalEdgeStyle;rounded=0;orthogonalLoop=1;jettySize=auto;html=1;entryX=0.5;entryY=1;entryDx=0;entryDy=0;fontColor=#6C8EBF;strokeColor=#6C8EBF;" edge="1" parent="1" source="9_KCnbI3byb7aFg2Pdaz-81" target="9_KCnbI3byb7aFg2Pdaz-84">
          <mxGeometry relative="1" as="geometry" />
        </mxCell>
        <mxCell id="9_KCnbI3byb7aFg2Pdaz-81" value="&lt;font style=&quot;font-size: 18px&quot;&gt;Fomily&amp;nbsp; &amp;nbsp;+&amp;nbsp; &amp;nbsp;MVVM&lt;/font&gt;" style="rounded=0;whiteSpace=wrap;html=1;dashed=1;fontColor=#6C8EBF;strokeColor=#6C8EBF;strokeWidth=2;fillColor=none;" vertex="1" parent="1">
          <mxGeometry x="966" y="1957" width="426" height="193" as="geometry" />
        </mxCell>
        <mxCell id="9_KCnbI3byb7aFg2Pdaz-93" style="edgeStyle=orthogonalEdgeStyle;rounded=0;orthogonalLoop=1;jettySize=auto;html=1;exitX=0.75;exitY=1;exitDx=0;exitDy=0;fontSize=18;fontColor=#6C8EBF;strokeColor=#6C8EBF;" edge="1" parent="1" source="9_KCnbI3byb7aFg2Pdaz-83">
          <mxGeometry relative="1" as="geometry">
            <mxPoint x="1635" y="1709" as="targetPoint" />
          </mxGeometry>
        </mxCell>
        <mxCell id="9_KCnbI3byb7aFg2Pdaz-113" value="数据消费" style="edgeLabel;html=1;align=center;verticalAlign=middle;resizable=0;points=[];fontSize=18;fontColor=#6C8EBF;" vertex="1" connectable="0" parent="9_KCnbI3byb7aFg2Pdaz-93">
          <mxGeometry x="0.1186" y="-1" relative="1" as="geometry">
            <mxPoint as="offset" />
          </mxGeometry>
        </mxCell>
        <mxCell id="9_KCnbI3byb7aFg2Pdaz-83" value="&lt;font style=&quot;font-size: 18px&quot;&gt;数据中心&lt;/font&gt;" style="rounded=0;whiteSpace=wrap;html=1;dashed=1;fontColor=#6C8EBF;strokeColor=#6C8EBF;strokeWidth=2;fillColor=none;" vertex="1" parent="1">
          <mxGeometry x="966" y="1583" width="892" height="67" as="geometry" />
        </mxCell>
        <mxCell id="9_KCnbI3byb7aFg2Pdaz-89" style="edgeStyle=orthogonalEdgeStyle;rounded=0;orthogonalLoop=1;jettySize=auto;html=1;entryX=0.238;entryY=1.03;entryDx=0;entryDy=0;entryPerimeter=0;fontColor=#6C8EBF;strokeColor=#6C8EBF;" edge="1" parent="1" source="9_KCnbI3byb7aFg2Pdaz-84" target="9_KCnbI3byb7aFg2Pdaz-83">
          <mxGeometry relative="1" as="geometry" />
        </mxCell>
        <mxCell id="9_KCnbI3byb7aFg2Pdaz-90" value="数据生产" style="edgeLabel;html=1;align=center;verticalAlign=middle;resizable=0;points=[];fontColor=#6C8EBF;fontSize=18;" vertex="1" connectable="0" parent="9_KCnbI3byb7aFg2Pdaz-89">
          <mxGeometry x="0.0454" y="1" relative="1" as="geometry">
            <mxPoint x="1" as="offset" />
          </mxGeometry>
        </mxCell>
        <mxCell id="9_KCnbI3byb7aFg2Pdaz-84" value="&lt;font style=&quot;font-size: 18px&quot;&gt;请求处理模块&lt;/font&gt;" style="rounded=0;whiteSpace=wrap;html=1;dashed=1;fontColor=#6C8EBF;strokeColor=#6C8EBF;strokeWidth=2;fillColor=none;" vertex="1" parent="1">
          <mxGeometry x="966" y="1711" width="426" height="211" as="geometry" />
        </mxCell>
        <mxCell id="9_KCnbI3byb7aFg2Pdaz-86" value="&lt;font style=&quot;font-size: 18px&quot;&gt;数据生产者&lt;/font&gt;" style="text;html=1;strokeColor=none;fillColor=none;align=center;verticalAlign=middle;whiteSpace=wrap;rounded=0;dashed=1;fontColor=#6C8EBF;" vertex="1" parent="1">
          <mxGeometry x="859" y="1809" width="99" height="21" as="geometry" />
        </mxCell>
        <mxCell id="9_KCnbI3byb7aFg2Pdaz-87" value="&lt;span style=&quot;font-size: 18px&quot;&gt;表单联动模块&lt;/span&gt;" style="text;html=1;strokeColor=none;fillColor=none;align=center;verticalAlign=middle;whiteSpace=wrap;rounded=0;dashed=1;fontColor=#6C8EBF;" vertex="1" parent="1">
          <mxGeometry x="836" y="2045" width="120" height="21" as="geometry" />
        </mxCell>
        <mxCell id="9_KCnbI3byb7aFg2Pdaz-91" value="&lt;font style=&quot;font-size: 18px&quot;&gt;订阅发布模块&lt;/font&gt;" style="text;html=1;strokeColor=none;fillColor=none;align=center;verticalAlign=middle;whiteSpace=wrap;rounded=0;dashed=1;fontColor=#6C8EBF;" vertex="1" parent="1">
          <mxGeometry x="1342.25" y="1535" width="139.5" height="21" as="geometry" />
        </mxCell>
        <mxCell id="9_KCnbI3byb7aFg2Pdaz-94" value="&lt;font style=&quot;font-size: 18px&quot;&gt;数据消费者&lt;/font&gt;" style="text;html=1;strokeColor=none;fillColor=none;align=center;verticalAlign=middle;whiteSpace=wrap;rounded=0;dashed=1;fontColor=#6C8EBF;" vertex="1" parent="1">
          <mxGeometry x="1858" y="1925" width="99" height="21" as="geometry" />
        </mxCell>
        <mxCell id="9_KCnbI3byb7aFg2Pdaz-95" value="Table" style="shape=table;startSize=30;container=1;collapsible=0;childLayout=tableLayout;fontStyle=1;align=center;pointerEvents=1;dashed=1;fontSize=18;fontColor=#6C8EBF;strokeColor=#6C8EBF;strokeWidth=2;fillColor=none;" vertex="1" parent="1">
          <mxGeometry x="1433" y="1708" width="419" height="442" as="geometry" />
        </mxCell>
        <mxCell id="9_KCnbI3byb7aFg2Pdaz-96" value="" style="shape=partialRectangle;html=1;whiteSpace=wrap;collapsible=0;dropTarget=0;pointerEvents=0;fillColor=none;top=0;left=0;bottom=0;right=0;points=[[0,0.5],[1,0.5]];portConstraint=eastwest;" vertex="1" parent="9_KCnbI3byb7aFg2Pdaz-95">
          <mxGeometry y="30" width="419" height="138" as="geometry" />
        </mxCell>
        <mxCell id="9_KCnbI3byb7aFg2Pdaz-97" value="" style="shape=partialRectangle;html=1;whiteSpace=wrap;connectable=0;fillColor=none;top=0;left=0;bottom=0;right=0;overflow=hidden;pointerEvents=1;" vertex="1" parent="9_KCnbI3byb7aFg2Pdaz-96">
          <mxGeometry width="140" height="138" as="geometry" />
        </mxCell>
        <mxCell id="9_KCnbI3byb7aFg2Pdaz-98" value="" style="shape=partialRectangle;html=1;whiteSpace=wrap;connectable=0;fillColor=none;top=0;left=0;bottom=0;right=0;overflow=hidden;pointerEvents=1;" vertex="1" parent="9_KCnbI3byb7aFg2Pdaz-96">
          <mxGeometry x="140" width="120" height="138" as="geometry" />
        </mxCell>
        <mxCell id="9_KCnbI3byb7aFg2Pdaz-99" value="" style="shape=partialRectangle;html=1;whiteSpace=wrap;connectable=0;fillColor=none;top=0;left=0;bottom=0;right=0;overflow=hidden;pointerEvents=1;" vertex="1" parent="9_KCnbI3byb7aFg2Pdaz-96">
          <mxGeometry x="260" width="159" height="138" as="geometry" />
        </mxCell>
        <mxCell id="9_KCnbI3byb7aFg2Pdaz-100" value="" style="shape=partialRectangle;html=1;whiteSpace=wrap;collapsible=0;dropTarget=0;pointerEvents=0;fillColor=none;top=0;left=0;bottom=0;right=0;points=[[0,0.5],[1,0.5]];portConstraint=eastwest;" vertex="1" parent="9_KCnbI3byb7aFg2Pdaz-95">
          <mxGeometry y="168" width="419" height="136" as="geometry" />
        </mxCell>
        <mxCell id="9_KCnbI3byb7aFg2Pdaz-101" value="" style="shape=partialRectangle;html=1;whiteSpace=wrap;connectable=0;fillColor=none;top=0;left=0;bottom=0;right=0;overflow=hidden;pointerEvents=1;" vertex="1" parent="9_KCnbI3byb7aFg2Pdaz-100">
          <mxGeometry width="140" height="136" as="geometry" />
        </mxCell>
        <mxCell id="9_KCnbI3byb7aFg2Pdaz-102" value="&lt;font color=&quot;#6c8ebf&quot; style=&quot;font-size: 18px&quot;&gt;虚拟滚动&lt;/font&gt;" style="shape=partialRectangle;html=1;whiteSpace=wrap;connectable=0;fillColor=none;top=0;left=0;bottom=0;right=0;overflow=hidden;pointerEvents=1;" vertex="1" parent="9_KCnbI3byb7aFg2Pdaz-100">
          <mxGeometry x="140" width="120" height="136" as="geometry" />
        </mxCell>
        <mxCell id="9_KCnbI3byb7aFg2Pdaz-103" value="" style="shape=partialRectangle;html=1;whiteSpace=wrap;connectable=0;fillColor=none;top=0;left=0;bottom=0;right=0;overflow=hidden;pointerEvents=1;" vertex="1" parent="9_KCnbI3byb7aFg2Pdaz-100">
          <mxGeometry x="260" width="159" height="136" as="geometry" />
        </mxCell>
        <mxCell id="9_KCnbI3byb7aFg2Pdaz-104" value="" style="shape=partialRectangle;html=1;whiteSpace=wrap;collapsible=0;dropTarget=0;pointerEvents=0;fillColor=none;top=0;left=0;bottom=0;right=0;points=[[0,0.5],[1,0.5]];portConstraint=eastwest;" vertex="1" parent="9_KCnbI3byb7aFg2Pdaz-95">
          <mxGeometry y="304" width="419" height="138" as="geometry" />
        </mxCell>
        <mxCell id="9_KCnbI3byb7aFg2Pdaz-105" value="" style="shape=partialRectangle;html=1;whiteSpace=wrap;connectable=0;fillColor=none;top=0;left=0;bottom=0;right=0;overflow=hidden;pointerEvents=1;" vertex="1" parent="9_KCnbI3byb7aFg2Pdaz-104">
          <mxGeometry width="140" height="138" as="geometry" />
        </mxCell>
        <mxCell id="9_KCnbI3byb7aFg2Pdaz-106" value="" style="shape=partialRectangle;html=1;whiteSpace=wrap;connectable=0;fillColor=none;top=0;left=0;bottom=0;right=0;overflow=hidden;pointerEvents=1;" vertex="1" parent="9_KCnbI3byb7aFg2Pdaz-104">
          <mxGeometry x="140" width="120" height="138" as="geometry" />
        </mxCell>
        <mxCell id="9_KCnbI3byb7aFg2Pdaz-107" value="" style="shape=partialRectangle;html=1;whiteSpace=wrap;connectable=0;fillColor=none;top=0;left=0;bottom=0;right=0;overflow=hidden;pointerEvents=1;" vertex="1" parent="9_KCnbI3byb7aFg2Pdaz-104">
          <mxGeometry x="260" width="159" height="138" as="geometry" />
        </mxCell>
        <mxCell id="9_KCnbI3byb7aFg2Pdaz-110" value="缓存中心" style="rounded=1;whiteSpace=wrap;html=1;dashed=1;fontSize=18;fontColor=#6C8EBF;strokeColor=#6C8EBF;strokeWidth=2;fillColor=none;" vertex="1" parent="1">
          <mxGeometry x="1132" y="1594.5" width="94" height="44" as="geometry" />
        </mxCell>
        <mxCell id="9_KCnbI3byb7aFg2Pdaz-112" value="数据处理" style="rounded=1;whiteSpace=wrap;html=1;dashed=1;fontSize=18;fontColor=#6C8EBF;strokeColor=#6C8EBF;strokeWidth=2;fillColor=none;" vertex="1" parent="1">
          <mxGeometry x="1587" y="1594.5" width="94" height="44" as="geometry" />
        </mxCell>
        <mxCell id="9_KCnbI3byb7aFg2Pdaz-114" value="" style="endArrow=classic;html=1;fontSize=18;fontColor=#6C8EBF;strokeColor=#6C8EBF;strokeWidth=3;" edge="1" parent="1">
          <mxGeometry width="50" height="50" relative="1" as="geometry">
            <mxPoint x="989" y="2919" as="sourcePoint" />
            <mxPoint x="2062" y="2926" as="targetPoint" />
          </mxGeometry>
        </mxCell>
        <mxCell id="9_KCnbI3byb7aFg2Pdaz-115" value="需求宣讲" style="rounded=1;whiteSpace=wrap;html=1;dashed=1;fontSize=18;fontColor=#6C8EBF;strokeColor=#6C8EBF;strokeWidth=2;fillColor=none;" vertex="1" parent="1">
          <mxGeometry x="991" y="2849" width="309" height="60" as="geometry" />
        </mxCell>
        <mxCell id="9_KCnbI3byb7aFg2Pdaz-116" value="熟悉功能" style="rounded=1;whiteSpace=wrap;html=1;dashed=1;fontSize=18;strokeColor=#b85450;strokeWidth=2;fillColor=#f8cecc;" vertex="1" parent="1">
          <mxGeometry x="989" y="2774" width="151" height="60" as="geometry" />
        </mxCell>
        <mxCell id="9_KCnbI3byb7aFg2Pdaz-117" value="需求评估" style="rounded=1;whiteSpace=wrap;html=1;dashed=1;fontSize=18;fontColor=#6C8EBF;strokeColor=#6C8EBF;strokeWidth=2;fillColor=none;" vertex="1" parent="1">
          <mxGeometry x="1085.5" y="2691" width="120" height="60" as="geometry" />
        </mxCell>
        <mxCell id="9_KCnbI3byb7aFg2Pdaz-118" value="需求开发" style="rounded=1;whiteSpace=wrap;html=1;dashed=1;fontSize=18;fontColor=#6C8EBF;strokeColor=#6C8EBF;strokeWidth=2;fillColor=none;" vertex="1" parent="1">
          <mxGeometry x="1339" y="2849" width="328" height="60" as="geometry" />
        </mxCell>
        <mxCell id="9_KCnbI3byb7aFg2Pdaz-119" value="风险控制" style="rounded=1;whiteSpace=wrap;html=1;dashed=1;fontSize=18;strokeColor=#b85450;strokeWidth=2;fillColor=#f8cecc;" vertex="1" parent="1">
          <mxGeometry x="1345" y="2771" width="147" height="60" as="geometry" />
        </mxCell>
        <mxCell id="9_KCnbI3byb7aFg2Pdaz-120" value="流程控制" style="rounded=1;whiteSpace=wrap;html=1;dashed=1;fontSize=18;strokeColor=#b85450;strokeWidth=2;fillColor=#f8cecc;" vertex="1" parent="1">
          <mxGeometry x="1507" y="2771" width="149" height="60" as="geometry" />
        </mxCell>
        <mxCell id="9_KCnbI3byb7aFg2Pdaz-121" value="任务同步" style="rounded=1;whiteSpace=wrap;html=1;dashed=1;fontSize=18;fontColor=#6C8EBF;strokeColor=#6C8EBF;strokeWidth=2;fillColor=none;" vertex="1" parent="1">
          <mxGeometry x="1426" y="2691" width="146" height="60" as="geometry" />
        </mxCell>
        <mxCell id="9_KCnbI3byb7aFg2Pdaz-122" value="需求上线" style="rounded=1;whiteSpace=wrap;html=1;dashed=1;fontSize=18;fontColor=#6C8EBF;strokeColor=#6C8EBF;strokeWidth=2;fillColor=none;" vertex="1" parent="1">
          <mxGeometry x="1698" y="2849" width="311" height="60" as="geometry" />
        </mxCell>
        <mxCell id="9_KCnbI3byb7aFg2Pdaz-123" value="文档输出" style="rounded=1;whiteSpace=wrap;html=1;dashed=1;fontSize=18;fontColor=#6C8EBF;strokeColor=#6C8EBF;strokeWidth=2;fillColor=none;" vertex="1" parent="1">
          <mxGeometry x="1700" y="2774" width="145" height="60" as="geometry" />
        </mxCell>
        <mxCell id="9_KCnbI3byb7aFg2Pdaz-124" value="数据统计" style="rounded=1;whiteSpace=wrap;html=1;dashed=1;fontSize=18;strokeColor=#b85450;strokeWidth=2;fillColor=#f8cecc;" vertex="1" parent="1">
          <mxGeometry x="1856" y="2774" width="146" height="60" as="geometry" />
        </mxCell>
        <mxCell id="9_KCnbI3byb7aFg2Pdaz-125" value="需求复盘" style="rounded=1;whiteSpace=wrap;html=1;dashed=1;fontSize=18;fontColor=#6C8EBF;strokeColor=#6C8EBF;strokeWidth=2;fillColor=none;" vertex="1" parent="1">
          <mxGeometry x="1776" y="2691" width="146" height="60" as="geometry" />
        </mxCell>
        <mxCell id="9_KCnbI3byb7aFg2Pdaz-132" value="" style="shape=curlyBracket;whiteSpace=wrap;html=1;rounded=1;flipH=1;dashed=1;fontSize=18;fontColor=#6C8EBF;strokeColor=#6C8EBF;strokeWidth=3;fillColor=none;direction=north;" vertex="1" parent="1">
          <mxGeometry x="998" y="2949" width="315" height="20" as="geometry" />
        </mxCell>
        <mxCell id="9_KCnbI3byb7aFg2Pdaz-134" value="准备阶段" style="text;html=1;strokeColor=none;fillColor=none;align=center;verticalAlign=middle;whiteSpace=wrap;rounded=0;dashed=1;fontSize=18;fontColor=#6C8EBF;" vertex="1" parent="1">
          <mxGeometry x="1124.5" y="2980" width="96" height="20" as="geometry" />
        </mxCell>
        <mxCell id="9_KCnbI3byb7aFg2Pdaz-136" value="" style="shape=curlyBracket;whiteSpace=wrap;html=1;rounded=1;flipH=1;dashed=1;fontSize=18;fontColor=#6C8EBF;strokeColor=#6C8EBF;strokeWidth=3;fillColor=none;direction=north;" vertex="1" parent="1">
          <mxGeometry x="1336" y="2949" width="334" height="20" as="geometry" />
        </mxCell>
        <mxCell id="9_KCnbI3byb7aFg2Pdaz-137" value="coding阶段" style="text;html=1;strokeColor=none;fillColor=none;align=center;verticalAlign=middle;whiteSpace=wrap;rounded=0;dashed=1;fontSize=18;fontColor=#6C8EBF;" vertex="1" parent="1">
          <mxGeometry x="1455" y="2993" width="96" height="20" as="geometry" />
        </mxCell>
        <mxCell id="9_KCnbI3byb7aFg2Pdaz-138" value="" style="shape=curlyBracket;whiteSpace=wrap;html=1;rounded=1;flipH=1;dashed=1;fontSize=18;fontColor=#6C8EBF;strokeColor=#6C8EBF;strokeWidth=3;fillColor=none;direction=north;" vertex="1" parent="1">
          <mxGeometry x="1700" y="2949" width="314" height="20" as="geometry" />
        </mxCell>
        <mxCell id="9_KCnbI3byb7aFg2Pdaz-139" value="复盘阶段" style="text;html=1;strokeColor=none;fillColor=none;align=center;verticalAlign=middle;whiteSpace=wrap;rounded=0;dashed=1;fontSize=18;fontColor=#6C8EBF;" vertex="1" parent="1">
          <mxGeometry x="1805.5" y="2993" width="96" height="20" as="geometry" />
        </mxCell>
        <mxCell id="9_KCnbI3byb7aFg2Pdaz-140" value="技术调研" style="rounded=1;whiteSpace=wrap;html=1;dashed=1;fontSize=18;fontColor=#6C8EBF;strokeColor=#6C8EBF;strokeWidth=2;fillColor=none;" vertex="1" parent="1">
          <mxGeometry x="1151" y="2774" width="147" height="60" as="geometry" />
        </mxCell>
        <mxCell id="9_KCnbI3byb7aFg2Pdaz-141" value="" style="ellipse;shape=cloud;whiteSpace=wrap;html=1;dashed=1;fontSize=18;fontColor=#6C8EBF;strokeColor=#6C8EBF;strokeWidth=1;fillColor=none;" vertex="1" parent="1">
          <mxGeometry x="2635" y="399" width="421" height="326" as="geometry" />
        </mxCell>
        <mxCell id="9_KCnbI3byb7aFg2Pdaz-142" value="" style="ellipse;whiteSpace=wrap;html=1;aspect=fixed;dashed=1;fontSize=18;fontColor=#6C8EBF;strokeColor=#6C8EBF;strokeWidth=1;fillColor=none;" vertex="1" parent="1">
          <mxGeometry x="2749" y="719" width="33" height="33" as="geometry" />
        </mxCell>
        <mxCell id="9_KCnbI3byb7aFg2Pdaz-143" value="" style="ellipse;whiteSpace=wrap;html=1;aspect=fixed;dashed=1;fontSize=18;fontColor=#6C8EBF;strokeColor=#6C8EBF;strokeWidth=1;fillColor=none;" vertex="1" parent="1">
          <mxGeometry x="2745" y="741" width="19" height="19" as="geometry" />
        </mxCell>
        <mxCell id="9_KCnbI3byb7aFg2Pdaz-144" value="" style="ellipse;whiteSpace=wrap;html=1;aspect=fixed;dashed=1;fontSize=18;fontColor=#6C8EBF;strokeColor=#6C8EBF;strokeWidth=1;fillColor=none;" vertex="1" parent="1">
          <mxGeometry x="2760" y="697" width="44" height="44" as="geometry" />
        </mxCell>
        <mxCell id="9_KCnbI3byb7aFg2Pdaz-145" value="开心鼠" style="text;html=1;strokeColor=none;fillColor=none;align=center;verticalAlign=middle;whiteSpace=wrap;rounded=0;dashed=1;fontSize=18;fontColor=#6C8EBF;" vertex="1" parent="1">
          <mxGeometry x="2709" y="773" width="63" height="20" as="geometry" />
        </mxCell>
        <mxCell id="9_KCnbI3byb7aFg2Pdaz-146" value="社群运营" style="rounded=0;whiteSpace=wrap;html=1;dashed=1;fontSize=18;fontColor=#6C8EBF;strokeColor=#6C8EBF;strokeWidth=1;fillColor=none;" vertex="1" parent="1">
          <mxGeometry x="2749" y="600" width="79" height="29" as="geometry" />
        </mxCell>
        <mxCell id="9_KCnbI3byb7aFg2Pdaz-147" value="学科产品" style="rounded=0;whiteSpace=wrap;html=1;dashed=1;fontSize=18;fontColor=#6C8EBF;strokeColor=#6C8EBF;strokeWidth=1;fillColor=none;" vertex="1" parent="1">
          <mxGeometry x="2703" y="525" width="79" height="29" as="geometry" />
        </mxCell>
        <mxCell id="9_KCnbI3byb7aFg2Pdaz-148" value="广告营销" style="rounded=0;whiteSpace=wrap;html=1;dashed=1;fontSize=18;fontColor=#6C8EBF;strokeColor=#6C8EBF;strokeWidth=1;fillColor=none;" vertex="1" parent="1">
          <mxGeometry x="2823" y="646" width="79" height="29" as="geometry" />
        </mxCell>
        <mxCell id="9_KCnbI3byb7aFg2Pdaz-149" value="用户增长" style="rounded=0;whiteSpace=wrap;html=1;dashed=1;fontSize=18;fontColor=#6C8EBF;strokeColor=#6C8EBF;strokeWidth=1;fillColor=none;" vertex="1" parent="1">
          <mxGeometry x="2902" y="600" width="79" height="29" as="geometry" />
        </mxCell>
        <mxCell id="9_KCnbI3byb7aFg2Pdaz-151" value="活动运营" style="rounded=0;whiteSpace=wrap;html=1;dashed=1;fontSize=18;fontColor=#6C8EBF;strokeColor=#6C8EBF;strokeWidth=1;fillColor=none;" vertex="1" parent="1">
          <mxGeometry x="2823" y="551" width="79" height="29" as="geometry" />
        </mxCell>
        <mxCell id="9_KCnbI3byb7aFg2Pdaz-152" value="平台产品" style="rounded=0;whiteSpace=wrap;html=1;dashed=1;fontSize=18;fontColor=#6C8EBF;strokeColor=#6C8EBF;strokeWidth=1;fillColor=none;" vertex="1" parent="1">
          <mxGeometry x="2861" y="491" width="79" height="29" as="geometry" />
        </mxCell>
        <mxCell id="9_KCnbI3byb7aFg2Pdaz-156" style="edgeStyle=orthogonalEdgeStyle;rounded=0;orthogonalLoop=1;jettySize=auto;html=1;exitX=1;exitY=0.5;exitDx=0;exitDy=0;entryX=0;entryY=0.5;entryDx=0;entryDy=0;fontSize=18;fontColor=#6C8EBF;strokeColor=#6C8EBF;strokeWidth=1;" edge="1" parent="1" source="9_KCnbI3byb7aFg2Pdaz-155" target="9_KCnbI3byb7aFg2Pdaz-146">
          <mxGeometry relative="1" as="geometry" />
        </mxCell>
        <mxCell id="9_KCnbI3byb7aFg2Pdaz-155" value="司空" style="text;html=1;strokeColor=none;fillColor=none;align=center;verticalAlign=middle;whiteSpace=wrap;rounded=0;dashed=1;fontSize=18;fontColor=#6C8EBF;" vertex="1" parent="1">
          <mxGeometry x="2547" y="604.5" width="42" height="20" as="geometry" />
        </mxCell>
        <mxCell id="9_KCnbI3byb7aFg2Pdaz-157" value="数据分析" style="rounded=0;whiteSpace=wrap;html=1;dashed=1;fontSize=18;fontColor=#6C8EBF;strokeColor=#6C8EBF;strokeWidth=1;fillColor=none;" vertex="1" parent="1">
          <mxGeometry x="2764" y="458" width="79" height="29" as="geometry" />
        </mxCell>
        <mxCell id="9_KCnbI3byb7aFg2Pdaz-158" value="A" style="fillColor=none;strokeColor=none;align=left;fontSize=14;dashed=1;fontColor=#6C8EBF;" vertex="1" parent="1">
          <mxGeometry x="2639" y="1216" width="260" height="40" as="geometry" />
        </mxCell>
        <mxCell id="9_KCnbI3byb7aFg2Pdaz-159" value="ABC" style="html=1;shadow=0;dashed=0;shape=mxgraph.bootstrap.rrect;rSize=5;fillColor=none;strokeColor=#999999;align=left;spacing=15;fontSize=14;fontColor=#6C767D;" vertex="1" parent="1">
          <mxGeometry width="392" height="30" relative="1" as="geometry">
            <mxPoint x="2671" y="1224" as="offset" />
          </mxGeometry>
        </mxCell>
        <mxCell id="9_KCnbI3byb7aFg2Pdaz-160" value="B" style="fillColor=none;strokeColor=none;align=left;fontSize=14;dashed=1;fontColor=#6C8EBF;" vertex="1" parent="1">
          <mxGeometry width="260" height="40" relative="1" as="geometry">
            <mxPoint x="2639" y="1265" as="offset" />
          </mxGeometry>
        </mxCell>
        <mxCell id="9_KCnbI3byb7aFg2Pdaz-161" value="1" style="html=1;shadow=0;dashed=0;shape=mxgraph.bootstrap.rrect;rSize=5;fillColor=none;strokeColor=#999999;align=left;spacing=15;fontSize=14;fontColor=#6C767D;" vertex="1" parent="1">
          <mxGeometry width="393" height="30" relative="1" as="geometry">
            <mxPoint x="2671" y="1274" as="offset" />
          </mxGeometry>
        </mxCell>
        <mxCell id="9_KCnbI3byb7aFg2Pdaz-162" value="C" style="fillColor=none;strokeColor=none;align=left;fontSize=14;dashed=1;fontColor=#6C8EBF;" vertex="1" parent="1">
          <mxGeometry width="260" height="40" relative="1" as="geometry">
            <mxPoint x="2638" y="1322" as="offset" />
          </mxGeometry>
        </mxCell>
        <mxCell id="9_KCnbI3byb7aFg2Pdaz-176" value="" style="html=1;shadow=0;dashed=0;shape=mxgraph.bootstrap.rrect;rSize=5;fillColor=none;strokeColor=#999999;align=left;spacing=15;fontSize=14;fontColor=#6C767D;" vertex="1" parent="1">
          <mxGeometry x="2668" y="1325" width="394" height="100" as="geometry" />
        </mxCell>
        <mxCell id="9_KCnbI3byb7aFg2Pdaz-177" value="" style="html=1;shadow=0;dashed=0;shape=mxgraph.bootstrap.rightButton;rSize=5;fillColor=#F1F1F1;strokeColor=#999999;" vertex="1" parent="9_KCnbI3byb7aFg2Pdaz-176">
          <mxGeometry x="1" width="20" height="100" relative="1" as="geometry">
            <mxPoint x="-20" as="offset" />
          </mxGeometry>
        </mxCell>
        <mxCell id="9_KCnbI3byb7aFg2Pdaz-178" value="" style="fillColor=#C1C1C1;strokeColor=none;" vertex="1" parent="9_KCnbI3byb7aFg2Pdaz-177">
          <mxGeometry width="16" height="45" relative="1" as="geometry">
            <mxPoint x="2" y="20" as="offset" />
          </mxGeometry>
        </mxCell>
        <mxCell id="9_KCnbI3byb7aFg2Pdaz-179" value="" style="shape=triangle;direction=north;fillColor=#C1C1C1;strokeColor=none;perimeter=none;" vertex="1" parent="9_KCnbI3byb7aFg2Pdaz-177">
          <mxGeometry width="10" height="5" relative="1" as="geometry">
            <mxPoint x="5" y="7.5" as="offset" />
          </mxGeometry>
        </mxCell>
        <mxCell id="9_KCnbI3byb7aFg2Pdaz-180" value="" style="shape=triangle;direction=south;fillColor=#505050;strokeColor=none;perimeter=none;" vertex="1" parent="9_KCnbI3byb7aFg2Pdaz-177">
          <mxGeometry y="1" width="10" height="5" relative="1" as="geometry">
            <mxPoint x="5" y="-12.5" as="offset" />
          </mxGeometry>
        </mxCell>
        <mxCell id="9_KCnbI3byb7aFg2Pdaz-181" value="请选择值" style="fillColor=#C8C8C8;strokeColor=none;align=left;fontSize=14;fontColor=#323232;" vertex="1" parent="9_KCnbI3byb7aFg2Pdaz-176">
          <mxGeometry width="359" height="20" relative="1" as="geometry">
            <mxPoint x="10" y="10" as="offset" />
          </mxGeometry>
        </mxCell>
        <mxCell id="9_KCnbI3byb7aFg2Pdaz-182" value="One" style="fillColor=none;strokeColor=none;align=left;fontSize=14;fontColor=#495057;" vertex="1" parent="9_KCnbI3byb7aFg2Pdaz-176">
          <mxGeometry width="760" height="20" relative="1" as="geometry">
            <mxPoint x="10" y="30" as="offset" />
          </mxGeometry>
        </mxCell>
        <mxCell id="9_KCnbI3byb7aFg2Pdaz-183" value="Two" style="fillColor=none;strokeColor=none;align=left;fontSize=14;fontColor=#495057;" vertex="1" parent="9_KCnbI3byb7aFg2Pdaz-176">
          <mxGeometry width="760" height="20" relative="1" as="geometry">
            <mxPoint x="10" y="50" as="offset" />
          </mxGeometry>
        </mxCell>
        <mxCell id="9_KCnbI3byb7aFg2Pdaz-184" value="Three" style="fillColor=none;strokeColor=none;align=left;fontSize=14;fontColor=#495057;" vertex="1" parent="9_KCnbI3byb7aFg2Pdaz-176">
          <mxGeometry width="760" height="20" relative="1" as="geometry">
            <mxPoint x="10" y="70" as="offset" />
          </mxGeometry>
        </mxCell>
        <mxCell id="9_KCnbI3byb7aFg2Pdaz-196" style="edgeStyle=orthogonalEdgeStyle;rounded=0;orthogonalLoop=1;jettySize=auto;html=1;exitX=0.5;exitY=1;exitDx=0;exitDy=0;fontSize=18;fontColor=#6C8EBF;strokeColor=#6C8EBF;strokeWidth=1;" edge="1" parent="1" source="9_KCnbI3byb7aFg2Pdaz-185">
          <mxGeometry relative="1" as="geometry">
            <mxPoint x="3689.666666666667" y="797.3333333333335" as="targetPoint" />
          </mxGeometry>
        </mxCell>
        <mxCell id="9_KCnbI3byb7aFg2Pdaz-185" value="Data&amp;nbsp; A" style="rounded=0;whiteSpace=wrap;html=1;dashed=1;fontSize=18;fontColor=#6C8EBF;strokeColor=#6C8EBF;strokeWidth=1;fillColor=none;" vertex="1" parent="1">
          <mxGeometry x="3649" y="728" width="82" height="32" as="geometry" />
        </mxCell>
        <mxCell id="9_KCnbI3byb7aFg2Pdaz-195" style="edgeStyle=orthogonalEdgeStyle;rounded=0;orthogonalLoop=1;jettySize=auto;html=1;exitX=0.5;exitY=1;exitDx=0;exitDy=0;fontSize=18;fontColor=#6C8EBF;strokeColor=#6C8EBF;strokeWidth=1;" edge="1" parent="1" source="9_KCnbI3byb7aFg2Pdaz-186">
          <mxGeometry relative="1" as="geometry">
            <mxPoint x="3812.166666666667" y="799" as="targetPoint" />
          </mxGeometry>
        </mxCell>
        <mxCell id="9_KCnbI3byb7aFg2Pdaz-186" value="Data&amp;nbsp;&amp;nbsp;B" style="rounded=0;whiteSpace=wrap;html=1;dashed=1;fontSize=18;fontColor=#6C8EBF;strokeColor=#6C8EBF;strokeWidth=1;fillColor=none;" vertex="1" parent="1">
          <mxGeometry x="3771" y="728" width="82" height="32" as="geometry" />
        </mxCell>
        <mxCell id="9_KCnbI3byb7aFg2Pdaz-194" style="edgeStyle=orthogonalEdgeStyle;rounded=0;orthogonalLoop=1;jettySize=auto;html=1;exitX=0.5;exitY=1;exitDx=0;exitDy=0;fontSize=18;fontColor=#6C8EBF;strokeColor=#6C8EBF;strokeWidth=1;" edge="1" parent="1" source="9_KCnbI3byb7aFg2Pdaz-187">
          <mxGeometry relative="1" as="geometry">
            <mxPoint x="3941.333333333334" y="795.6666666666667" as="targetPoint" />
          </mxGeometry>
        </mxCell>
        <mxCell id="9_KCnbI3byb7aFg2Pdaz-187" value="Data&amp;nbsp;&amp;nbsp;C" style="rounded=0;whiteSpace=wrap;html=1;dashed=1;fontSize=18;fontColor=#6C8EBF;strokeColor=#6C8EBF;strokeWidth=1;fillColor=none;" vertex="1" parent="1">
          <mxGeometry x="3900" y="728" width="82" height="32" as="geometry" />
        </mxCell>
        <mxCell id="9_KCnbI3byb7aFg2Pdaz-204" value="&lt;font color=&quot;#6c8ebf&quot;&gt;merge(map unique id)&lt;/font&gt;" style="rounded=0;whiteSpace=wrap;html=1;dashed=1;fontSize=18;fontColor=#333333;strokeWidth=1;fillColor=#f5f5f5;strokeColor=#666666;" vertex="1" parent="1">
          <mxGeometry x="3693" y="890" width="314" height="35" as="geometry" />
        </mxCell>
        <mxCell id="9_KCnbI3byb7aFg2Pdaz-209" value="" style="endArrow=classic;html=1;fontSize=18;fontColor=#6C8EBF;strokeColor=#6C8EBF;strokeWidth=1;" edge="1" parent="1">
          <mxGeometry width="50" height="50" relative="1" as="geometry">
            <mxPoint x="3649" y="798" as="sourcePoint" />
            <mxPoint x="4069" y="798" as="targetPoint" />
          </mxGeometry>
        </mxCell>
        <mxCell id="9_KCnbI3byb7aFg2Pdaz-211" value="" style="endArrow=classic;html=1;fontSize=18;fontColor=#6C8EBF;strokeColor=#6C8EBF;strokeWidth=1;" edge="1" parent="1">
          <mxGeometry width="50" height="50" relative="1" as="geometry">
            <mxPoint x="3642" y="973.58" as="sourcePoint" />
            <mxPoint x="4062" y="973.58" as="targetPoint" />
          </mxGeometry>
        </mxCell>
        <mxCell id="9_KCnbI3byb7aFg2Pdaz-213" style="edgeStyle=orthogonalEdgeStyle;rounded=0;orthogonalLoop=1;jettySize=auto;html=1;exitX=0.5;exitY=1;exitDx=0;exitDy=0;fontSize=18;fontColor=#6C8EBF;strokeColor=#6C8EBF;strokeWidth=1;" edge="1" parent="1">
          <mxGeometry relative="1" as="geometry">
            <mxPoint x="3843.996666666667" y="962.3333333333335" as="targetPoint" />
            <mxPoint x="3844.33" y="925" as="sourcePoint" />
          </mxGeometry>
        </mxCell>
        <mxCell id="9_KCnbI3byb7aFg2Pdaz-216" value="" style="shape=waypoint;sketch=0;fillStyle=solid;size=6;pointerEvents=1;points=[];fillColor=none;resizable=0;rotatable=0;perimeter=centerPerimeter;snapToPoint=1;dashed=1;fontSize=18;fontColor=#6C8EBF;strokeWidth=7;strokeColor=#6C8EBF;" vertex="1" parent="1">
          <mxGeometry x="3825" y="954" width="40" height="40" as="geometry" />
        </mxCell>
        <mxCell id="9_KCnbI3byb7aFg2Pdaz-233" style="edgeStyle=orthogonalEdgeStyle;rounded=0;orthogonalLoop=1;jettySize=auto;html=1;exitX=0.5;exitY=1;exitDx=0;exitDy=0;entryX=0.5;entryY=0;entryDx=0;entryDy=0;fontSize=18;fontColor=#6C8EBF;strokeColor=#6C8EBF;strokeWidth=1;" edge="1" parent="1" source="9_KCnbI3byb7aFg2Pdaz-217" target="9_KCnbI3byb7aFg2Pdaz-220">
          <mxGeometry relative="1" as="geometry" />
        </mxCell>
        <mxCell id="9_KCnbI3byb7aFg2Pdaz-217" value="数据上报" style="rounded=1;whiteSpace=wrap;html=1;dashed=1;fontSize=18;fontColor=#6C8EBF;strokeColor=#6C8EBF;strokeWidth=2;fillColor=none;" vertex="1" parent="1">
          <mxGeometry x="3830" y="1109" width="156" height="61" as="geometry" />
        </mxCell>
        <mxCell id="9_KCnbI3byb7aFg2Pdaz-319" style="edgeStyle=orthogonalEdgeStyle;rounded=0;orthogonalLoop=1;jettySize=auto;html=1;exitX=0.5;exitY=1;exitDx=0;exitDy=0;fontSize=16;fontColor=#6C8EBF;strokeColor=#6C8EBF;strokeWidth=1;" edge="1" parent="1" source="9_KCnbI3byb7aFg2Pdaz-218" target="9_KCnbI3byb7aFg2Pdaz-317">
          <mxGeometry relative="1" as="geometry" />
        </mxCell>
        <mxCell id="9_KCnbI3byb7aFg2Pdaz-320" style="edgeStyle=orthogonalEdgeStyle;rounded=0;orthogonalLoop=1;jettySize=auto;html=1;entryX=0.5;entryY=0;entryDx=0;entryDy=0;fontSize=16;fontColor=#6C8EBF;strokeColor=#6C8EBF;strokeWidth=1;" edge="1" parent="1" source="9_KCnbI3byb7aFg2Pdaz-218" target="9_KCnbI3byb7aFg2Pdaz-318">
          <mxGeometry relative="1" as="geometry" />
        </mxCell>
        <mxCell id="9_KCnbI3byb7aFg2Pdaz-218" value="Spark Steaming" style="rounded=1;whiteSpace=wrap;html=1;dashed=1;fontSize=18;fontColor=#6C8EBF;strokeColor=#6C8EBF;strokeWidth=2;fillColor=none;" vertex="1" parent="1">
          <mxGeometry x="3831" y="1335" width="156" height="59" as="geometry" />
        </mxCell>
        <mxCell id="9_KCnbI3byb7aFg2Pdaz-222" style="edgeStyle=orthogonalEdgeStyle;rounded=0;orthogonalLoop=1;jettySize=auto;html=1;exitX=0.5;exitY=1;exitDx=0;exitDy=0;fontSize=18;fontColor=#6C8EBF;strokeColor=#6C8EBF;strokeWidth=1;" edge="1" parent="1" source="9_KCnbI3byb7aFg2Pdaz-220" target="9_KCnbI3byb7aFg2Pdaz-218">
          <mxGeometry relative="1" as="geometry" />
        </mxCell>
        <mxCell id="9_KCnbI3byb7aFg2Pdaz-227" value="流式计算" style="edgeLabel;html=1;align=center;verticalAlign=middle;resizable=0;points=[];fontSize=16;fontColor=#6C8EBF;" vertex="1" connectable="0" parent="9_KCnbI3byb7aFg2Pdaz-222">
          <mxGeometry x="-0.1147" y="1" relative="1" as="geometry">
            <mxPoint as="offset" />
          </mxGeometry>
        </mxCell>
        <mxCell id="9_KCnbI3byb7aFg2Pdaz-220" value="Spark SQL" style="rounded=1;whiteSpace=wrap;html=1;dashed=1;fontSize=18;fontColor=#6C8EBF;strokeColor=#6C8EBF;strokeWidth=2;fillColor=none;" vertex="1" parent="1">
          <mxGeometry x="3829" y="1212" width="159" height="61" as="geometry" />
        </mxCell>
        <mxCell id="9_KCnbI3byb7aFg2Pdaz-242" style="edgeStyle=orthogonalEdgeStyle;rounded=0;orthogonalLoop=1;jettySize=auto;html=1;fontSize=16;fontColor=#6C8EBF;strokeColor=#6C8EBF;strokeWidth=1;" edge="1" parent="1" source="9_KCnbI3byb7aFg2Pdaz-240">
          <mxGeometry relative="1" as="geometry">
            <mxPoint x="3734" y="886" as="targetPoint" />
          </mxGeometry>
        </mxCell>
        <mxCell id="9_KCnbI3byb7aFg2Pdaz-240" value="" style="shape=waypoint;sketch=0;fillStyle=solid;size=6;pointerEvents=1;points=[];resizable=0;rotatable=0;perimeter=centerPerimeter;snapToPoint=1;dashed=1;fontSize=18;strokeWidth=7;fillColor=#DAE8FC;strokeColor=#3399FF;" vertex="1" parent="1">
          <mxGeometry x="3714" y="781" width="40" height="40" as="geometry" />
        </mxCell>
        <mxCell id="9_KCnbI3byb7aFg2Pdaz-241" value="" style="edgeStyle=orthogonalEdgeStyle;rounded=0;orthogonalLoop=1;jettySize=auto;html=1;exitX=0.5;exitY=1;exitDx=0;exitDy=0;fontSize=18;fontColor=#6C8EBF;strokeColor=#6C8EBF;strokeWidth=1;endArrow=none;" edge="1" parent="1" target="9_KCnbI3byb7aFg2Pdaz-240">
          <mxGeometry relative="1" as="geometry">
            <mxPoint x="3733.586666666667" y="834.3333333333335" as="targetPoint" />
            <mxPoint x="3733.92" y="797" as="sourcePoint" />
          </mxGeometry>
        </mxCell>
        <mxCell id="9_KCnbI3byb7aFg2Pdaz-248" style="edgeStyle=orthogonalEdgeStyle;rounded=0;orthogonalLoop=1;jettySize=auto;html=1;entryX=0.87;entryY=-0.052;entryDx=0;entryDy=0;entryPerimeter=0;fontSize=16;fontColor=#6C8EBF;strokeColor=#6C8EBF;strokeWidth=1;" edge="1" parent="1" source="9_KCnbI3byb7aFg2Pdaz-244" target="9_KCnbI3byb7aFg2Pdaz-204">
          <mxGeometry relative="1" as="geometry" />
        </mxCell>
        <mxCell id="9_KCnbI3byb7aFg2Pdaz-244" value="" style="shape=waypoint;sketch=0;fillStyle=solid;size=6;pointerEvents=1;points=[];resizable=0;rotatable=0;perimeter=centerPerimeter;snapToPoint=1;dashed=1;fontSize=18;strokeWidth=7;fillColor=#DAE8FC;strokeColor=#3399FF;" vertex="1" parent="1">
          <mxGeometry x="3946" y="778" width="40" height="40" as="geometry" />
        </mxCell>
        <mxCell id="9_KCnbI3byb7aFg2Pdaz-247" style="edgeStyle=orthogonalEdgeStyle;rounded=0;orthogonalLoop=1;jettySize=auto;html=1;fontSize=16;fontColor=#6C8EBF;strokeColor=#6C8EBF;strokeWidth=1;" edge="1" parent="1" source="9_KCnbI3byb7aFg2Pdaz-243">
          <mxGeometry relative="1" as="geometry">
            <mxPoint x="3854.5" y="889" as="targetPoint" />
          </mxGeometry>
        </mxCell>
        <mxCell id="9_KCnbI3byb7aFg2Pdaz-243" value="" style="shape=waypoint;sketch=0;fillStyle=solid;size=6;pointerEvents=1;points=[];resizable=0;rotatable=0;perimeter=centerPerimeter;snapToPoint=1;dashed=1;fontSize=18;strokeWidth=7;fillColor=#DAE8FC;strokeColor=#3399FF;" vertex="1" parent="1">
          <mxGeometry x="3834.5" y="778" width="40" height="40" as="geometry" />
        </mxCell>
        <mxCell id="9_KCnbI3byb7aFg2Pdaz-245" value="" style="edgeStyle=orthogonalEdgeStyle;rounded=0;orthogonalLoop=1;jettySize=auto;html=1;exitX=0.5;exitY=1;exitDx=0;exitDy=0;fontSize=18;fontColor=#6C8EBF;strokeColor=#6C8EBF;strokeWidth=1;endArrow=none;" edge="1" parent="1" target="9_KCnbI3byb7aFg2Pdaz-243">
          <mxGeometry relative="1" as="geometry">
            <mxPoint x="3852.996666666667" y="835.3333333333335" as="targetPoint" />
            <mxPoint x="3853.33" y="798" as="sourcePoint" />
          </mxGeometry>
        </mxCell>
        <mxCell id="9_KCnbI3byb7aFg2Pdaz-249" value="流式化" style="text;html=1;strokeColor=none;fillColor=none;align=center;verticalAlign=middle;whiteSpace=wrap;rounded=0;dashed=1;fontSize=16;fontColor=#6C8EBF;" vertex="1" parent="1">
          <mxGeometry x="3999" y="839" width="72" height="20" as="geometry" />
        </mxCell>
        <mxCell id="9_KCnbI3byb7aFg2Pdaz-250" value="通知中心" style="rounded=1;whiteSpace=wrap;html=1;dashed=1;fontSize=16;fontColor=#6C8EBF;strokeColor=#3399FF;strokeWidth=2;fillColor=#DAE8FC;" vertex="1" parent="1">
          <mxGeometry x="4201" y="2225" width="120" height="60" as="geometry" />
        </mxCell>
        <mxCell id="9_KCnbI3byb7aFg2Pdaz-251" value="反馈中心" style="rounded=1;whiteSpace=wrap;html=1;dashed=1;fontSize=16;fontColor=#6C8EBF;strokeColor=#3399FF;strokeWidth=2;fillColor=#DAE8FC;" vertex="1" parent="1">
          <mxGeometry x="3474.5" y="2460" width="120" height="60" as="geometry" />
        </mxCell>
        <mxCell id="9_KCnbI3byb7aFg2Pdaz-252" value="小助手" style="rounded=1;whiteSpace=wrap;html=1;dashed=1;fontSize=16;strokeColor=#b85450;strokeWidth=2;fillColor=#f8cecc;" vertex="1" parent="1">
          <mxGeometry x="3925" y="2540" width="120" height="60" as="geometry" />
        </mxCell>
        <mxCell id="9_KCnbI3byb7aFg2Pdaz-253" value="聊天记录" style="rounded=1;whiteSpace=wrap;html=1;dashed=1;fontSize=16;fontColor=#6C8EBF;strokeColor=#3399FF;strokeWidth=2;fillColor=#DAE8FC;" vertex="1" parent="1">
          <mxGeometry x="3925" y="2225" width="120" height="60" as="geometry" />
        </mxCell>
        <mxCell id="9_KCnbI3byb7aFg2Pdaz-255" value="错误兼容" style="rounded=1;whiteSpace=wrap;html=1;dashed=1;fontSize=16;fontColor=#6C8EBF;strokeColor=#3399FF;strokeWidth=2;fillColor=#DAE8FC;" vertex="1" parent="1">
          <mxGeometry x="3166" y="2460" width="120" height="60" as="geometry" />
        </mxCell>
        <mxCell id="9_KCnbI3byb7aFg2Pdaz-256" value="导航性能优化" style="rounded=1;whiteSpace=wrap;html=1;dashed=1;fontSize=16;fontColor=#6C8EBF;strokeColor=#3399FF;strokeWidth=2;fillColor=#DAE8FC;" vertex="1" parent="1">
          <mxGeometry x="3314" y="2460" width="120" height="60" as="geometry" />
        </mxCell>
        <mxCell id="9_KCnbI3byb7aFg2Pdaz-257" value="群信息编辑器" style="rounded=1;whiteSpace=wrap;html=1;dashed=1;fontSize=16;fontColor=#6C8EBF;strokeColor=#3399FF;strokeWidth=2;fillColor=#DAE8FC;" vertex="1" parent="1">
          <mxGeometry x="3762" y="2540" width="120" height="60" as="geometry" />
        </mxCell>
        <mxCell id="9_KCnbI3byb7aFg2Pdaz-258" value="班期优化" style="rounded=1;whiteSpace=wrap;html=1;dashed=1;fontSize=16;fontColor=#6C8EBF;strokeColor=#3399FF;strokeWidth=2;fillColor=#DAE8FC;" vertex="1" parent="1">
          <mxGeometry x="3758" y="2383" width="120" height="60" as="geometry" />
        </mxCell>
        <mxCell id="9_KCnbI3byb7aFg2Pdaz-259" value="群发昵称" style="rounded=1;whiteSpace=wrap;html=1;dashed=1;fontSize=16;fontColor=#6C8EBF;strokeColor=#3399FF;strokeWidth=2;fillColor=#DAE8FC;" vertex="1" parent="1">
          <mxGeometry x="3617" y="2383" width="120" height="60" as="geometry" />
        </mxCell>
        <mxCell id="9_KCnbI3byb7aFg2Pdaz-260" value="账号管理" style="rounded=1;whiteSpace=wrap;html=1;dashed=1;fontSize=16;fontColor=#6C8EBF;strokeColor=#3399FF;strokeWidth=2;fillColor=#DAE8FC;" vertex="1" parent="1">
          <mxGeometry x="3474.5" y="2305" width="120" height="60" as="geometry" />
        </mxCell>
        <mxCell id="9_KCnbI3byb7aFg2Pdaz-261" value="朋友圈" style="rounded=1;whiteSpace=wrap;html=1;dashed=1;fontSize=16;fontColor=#6C8EBF;strokeColor=#3399FF;strokeWidth=2;fillColor=#DAE8FC;" vertex="1" parent="1">
          <mxGeometry x="4201" y="2464" width="120" height="60" as="geometry" />
        </mxCell>
        <mxCell id="9_KCnbI3byb7aFg2Pdaz-262" value="发送记录优化" style="rounded=1;whiteSpace=wrap;html=1;dashed=1;fontSize=16;fontColor=#6C8EBF;strokeColor=#3399FF;strokeWidth=2;fillColor=#DAE8FC;" vertex="1" parent="1">
          <mxGeometry x="3474.5" y="2147" width="120" height="60" as="geometry" />
        </mxCell>
        <mxCell id="9_KCnbI3byb7aFg2Pdaz-264" value="我的班级" style="rounded=1;whiteSpace=wrap;html=1;dashed=1;fontSize=16;strokeColor=#b85450;strokeWidth=2;fillColor=#f8cecc;" vertex="1" parent="1">
          <mxGeometry x="4201" y="2538" width="120" height="60" as="geometry" />
        </mxCell>
        <mxCell id="9_KCnbI3byb7aFg2Pdaz-265" value="提醒中心" style="rounded=1;whiteSpace=wrap;html=1;dashed=1;fontSize=16;fontColor=#6C8EBF;strokeColor=#3399FF;strokeWidth=2;fillColor=#DAE8FC;" vertex="1" parent="1">
          <mxGeometry x="3474.5" y="2383" width="120" height="60" as="geometry" />
        </mxCell>
        <mxCell id="9_KCnbI3byb7aFg2Pdaz-266" value="老师侧边栏" style="rounded=1;whiteSpace=wrap;html=1;dashed=1;fontSize=16;fontColor=#6C8EBF;strokeColor=#3399FF;strokeWidth=2;fillColor=#DAE8FC;" vertex="1" parent="1">
          <mxGeometry x="3474.5" y="2225" width="120" height="60" as="geometry" />
        </mxCell>
        <mxCell id="9_KCnbI3byb7aFg2Pdaz-267" value="用户详情" style="rounded=1;whiteSpace=wrap;html=1;dashed=1;fontSize=16;strokeColor=#b85450;strokeWidth=2;fillColor=#f8cecc;" vertex="1" parent="1">
          <mxGeometry x="3925" y="2464" width="120" height="60" as="geometry" />
        </mxCell>
        <mxCell id="9_KCnbI3byb7aFg2Pdaz-268" value="SOP提醒" style="rounded=1;whiteSpace=wrap;html=1;dashed=1;fontSize=16;strokeColor=#b85450;strokeWidth=2;fillColor=#f8cecc;" vertex="1" parent="1">
          <mxGeometry x="3614" y="2225" width="120" height="60" as="geometry" />
        </mxCell>
        <mxCell id="9_KCnbI3byb7aFg2Pdaz-269" value="SOP编辑素材库" style="rounded=1;whiteSpace=wrap;html=1;dashed=1;fontSize=16;fontColor=#6C8EBF;strokeColor=#3399FF;strokeWidth=2;fillColor=#DAE8FC;" vertex="1" parent="1">
          <mxGeometry x="4063" y="2386" width="120" height="60" as="geometry" />
        </mxCell>
        <mxCell id="9_KCnbI3byb7aFg2Pdaz-270" value="SOP支持Excel" style="rounded=1;whiteSpace=wrap;html=1;dashed=1;fontSize=16;fontColor=#6C8EBF;strokeColor=#3399FF;strokeWidth=2;fillColor=#DAE8FC;" vertex="1" parent="1">
          <mxGeometry x="4201" y="2386" width="120" height="60" as="geometry" />
        </mxCell>
        <mxCell id="9_KCnbI3byb7aFg2Pdaz-271" value="信息收集卡" style="rounded=1;whiteSpace=wrap;html=1;dashed=1;fontSize=16;strokeColor=#b85450;strokeWidth=2;fillColor=#f8cecc;" vertex="1" parent="1">
          <mxGeometry x="4063" y="2464" width="120" height="60" as="geometry" />
        </mxCell>
        <mxCell id="9_KCnbI3byb7aFg2Pdaz-272" value="埋点数据优化" style="rounded=1;whiteSpace=wrap;html=1;dashed=1;fontSize=16;strokeColor=#b85450;strokeWidth=2;fillColor=#f8cecc;" vertex="1" parent="1">
          <mxGeometry x="3314.5" y="2540" width="120" height="60" as="geometry" />
        </mxCell>
        <mxCell id="9_KCnbI3byb7aFg2Pdaz-273" value="兼容新学科" style="rounded=1;whiteSpace=wrap;html=1;dashed=1;fontSize=16;fontColor=#6C8EBF;strokeColor=#3399FF;strokeWidth=2;fillColor=#DAE8FC;" vertex="1" parent="1">
          <mxGeometry x="3617" y="2305" width="120" height="60" as="geometry" />
        </mxCell>
        <mxCell id="9_KCnbI3byb7aFg2Pdaz-274" value="用户精细化" style="rounded=1;whiteSpace=wrap;html=1;dashed=1;fontSize=16;fontColor=#6C8EBF;strokeColor=#3399FF;strokeWidth=2;fillColor=#DAE8FC;" vertex="1" parent="1">
          <mxGeometry x="3758" y="2225" width="120" height="60" as="geometry" />
        </mxCell>
        <mxCell id="9_KCnbI3byb7aFg2Pdaz-275" value="SOP优化" style="rounded=1;whiteSpace=wrap;html=1;dashed=1;fontSize=16;strokeColor=#b85450;strokeWidth=2;fillColor=#f8cecc;" vertex="1" parent="1">
          <mxGeometry x="4063" y="2538" width="120" height="60" as="geometry" />
        </mxCell>
        <mxCell id="9_KCnbI3byb7aFg2Pdaz-276" value="学习报告" style="rounded=1;whiteSpace=wrap;html=1;dashed=1;fontSize=16;fontColor=#6C8EBF;strokeColor=#3399FF;strokeWidth=2;fillColor=#DAE8FC;" vertex="1" parent="1">
          <mxGeometry x="3758" y="2147" width="120" height="60" as="geometry" />
        </mxCell>
        <mxCell id="9_KCnbI3byb7aFg2Pdaz-277" value="素材库" style="rounded=1;whiteSpace=wrap;html=1;dashed=1;fontSize=16;fontColor=#6C8EBF;strokeColor=#3399FF;strokeWidth=2;fillColor=#DAE8FC;" vertex="1" parent="1">
          <mxGeometry x="3617" y="2460" width="120" height="60" as="geometry" />
        </mxCell>
        <mxCell id="9_KCnbI3byb7aFg2Pdaz-278" value="数据中心" style="rounded=1;whiteSpace=wrap;html=1;dashed=1;fontSize=16;strokeColor=#b85450;strokeWidth=2;fillColor=#f8cecc;" vertex="1" parent="1">
          <mxGeometry x="4063" y="2305" width="120" height="60" as="geometry" />
        </mxCell>
        <mxCell id="9_KCnbI3byb7aFg2Pdaz-279" value="订单优化" style="rounded=1;whiteSpace=wrap;html=1;dashed=1;fontSize=16;fontColor=#6C8EBF;strokeColor=#3399FF;strokeWidth=2;fillColor=#DAE8FC;" vertex="1" parent="1">
          <mxGeometry x="3619" y="2540" width="120" height="60" as="geometry" />
        </mxCell>
        <mxCell id="9_KCnbI3byb7aFg2Pdaz-280" value="老用户兼容" style="rounded=1;whiteSpace=wrap;html=1;dashed=1;fontSize=16;fontColor=#6C8EBF;strokeColor=#3399FF;strokeWidth=2;fillColor=#DAE8FC;" vertex="1" parent="1">
          <mxGeometry x="3758" y="2303" width="120" height="60" as="geometry" />
        </mxCell>
        <mxCell id="9_KCnbI3byb7aFg2Pdaz-281" value="迁移用户" style="rounded=1;whiteSpace=wrap;html=1;dashed=1;fontSize=16;fontColor=#6C8EBF;strokeColor=#3399FF;strokeWidth=2;fillColor=#DAE8FC;" vertex="1" parent="1">
          <mxGeometry x="3762" y="2460" width="120" height="60" as="geometry" />
        </mxCell>
        <mxCell id="9_KCnbI3byb7aFg2Pdaz-282" value="SOP权限" style="rounded=1;whiteSpace=wrap;html=1;dashed=1;fontSize=16;fontColor=#6C8EBF;strokeColor=#3399FF;strokeWidth=2;fillColor=#DAE8FC;" vertex="1" parent="1">
          <mxGeometry x="4063" y="2225" width="120" height="60" as="geometry" />
        </mxCell>
        <mxCell id="9_KCnbI3byb7aFg2Pdaz-283" value="广告位" style="rounded=1;whiteSpace=wrap;html=1;dashed=1;fontSize=16;fontColor=#6C8EBF;strokeColor=#3399FF;strokeWidth=2;fillColor=#DAE8FC;" vertex="1" parent="1">
          <mxGeometry x="3925" y="2305" width="120" height="60" as="geometry" />
        </mxCell>
        <mxCell id="9_KCnbI3byb7aFg2Pdaz-284" value="完课进度优化" style="rounded=1;whiteSpace=wrap;html=1;dashed=1;fontSize=16;fontColor=#6C8EBF;strokeColor=#3399FF;strokeWidth=2;fillColor=#DAE8FC;" vertex="1" parent="1">
          <mxGeometry x="3614" y="2147" width="120" height="60" as="geometry" />
        </mxCell>
        <mxCell id="9_KCnbI3byb7aFg2Pdaz-285" value="基础信息优化" style="rounded=1;whiteSpace=wrap;html=1;dashed=1;fontSize=16;fontColor=#6C8EBF;strokeColor=#3399FF;strokeWidth=2;fillColor=#DAE8FC;" vertex="1" parent="1">
          <mxGeometry x="3477" y="2540" width="120" height="60" as="geometry" />
        </mxCell>
        <mxCell id="9_KCnbI3byb7aFg2Pdaz-287" value="OTeam共建" style="rounded=1;whiteSpace=wrap;html=1;dashed=1;fontSize=16;strokeColor=#b85450;strokeWidth=2;fillColor=#f8cecc;" vertex="1" parent="1">
          <mxGeometry x="3016" y="2460" width="120" height="60" as="geometry" />
        </mxCell>
        <mxCell id="9_KCnbI3byb7aFg2Pdaz-289" value="Coding接入" style="rounded=1;whiteSpace=wrap;html=1;dashed=1;fontSize=16;fontColor=#6C8EBF;strokeColor=#3399FF;strokeWidth=2;fillColor=#DAE8FC;" vertex="1" parent="1">
          <mxGeometry x="3166" y="2540" width="120" height="60" as="geometry" />
        </mxCell>
        <mxCell id="9_KCnbI3byb7aFg2Pdaz-290" value="事件中心" style="rounded=1;whiteSpace=wrap;html=1;dashed=1;fontSize=16;fontColor=#6C8EBF;strokeColor=#3399FF;strokeWidth=2;fillColor=#DAE8FC;" vertex="1" parent="1">
          <mxGeometry x="4201" y="2305" width="120" height="60" as="geometry" />
        </mxCell>
        <mxCell id="9_KCnbI3byb7aFg2Pdaz-291" value="SOP今日总览" style="rounded=1;whiteSpace=wrap;html=1;dashed=1;fontSize=16;fontColor=#6C8EBF;strokeColor=#3399FF;strokeWidth=2;fillColor=#DAE8FC;" vertex="1" parent="1">
          <mxGeometry x="3925" y="2386" width="120" height="60" as="geometry" />
        </mxCell>
        <mxCell id="9_KCnbI3byb7aFg2Pdaz-292" value="单页优化" style="rounded=1;whiteSpace=wrap;html=1;dashed=1;fontSize=16;fontColor=#6C8EBF;strokeColor=#3399FF;strokeWidth=2;fillColor=#DAE8FC;" vertex="1" parent="1">
          <mxGeometry x="3016" y="2540" width="120" height="60" as="geometry" />
        </mxCell>
        <mxCell id="9_KCnbI3byb7aFg2Pdaz-294" value="external_id" style="text;html=1;strokeColor=none;fillColor=none;align=center;verticalAlign=middle;whiteSpace=wrap;rounded=0;dashed=1;fontSize=16;fontColor=#6C8EBF;" vertex="1" parent="1">
          <mxGeometry x="2547" y="1899" width="112" height="20" as="geometry" />
        </mxCell>
        <mxCell id="9_KCnbI3byb7aFg2Pdaz-298" value="member_id" style="text;html=1;strokeColor=none;fillColor=none;align=center;verticalAlign=middle;whiteSpace=wrap;rounded=0;dashed=1;fontSize=16;fontColor=#6C8EBF;" vertex="1" parent="1">
          <mxGeometry x="2556.5" y="1937" width="93" height="20" as="geometry" />
        </mxCell>
        <mxCell id="9_KCnbI3byb7aFg2Pdaz-301" value="union_id" style="text;html=1;strokeColor=none;fillColor=none;align=center;verticalAlign=middle;whiteSpace=wrap;rounded=0;dashed=1;fontSize=16;fontColor=#6C8EBF;" vertex="1" parent="1">
          <mxGeometry x="2561" y="1978" width="84" height="20" as="geometry" />
        </mxCell>
        <mxCell id="9_KCnbI3byb7aFg2Pdaz-302" value="侧边栏" style="text;html=1;strokeColor=none;fillColor=none;align=center;verticalAlign=middle;whiteSpace=wrap;rounded=0;dashed=1;fontSize=16;fontColor=#6C8EBF;" vertex="1" parent="1">
          <mxGeometry x="2454" y="1899" width="68" height="20" as="geometry" />
        </mxCell>
        <mxCell id="9_KCnbI3byb7aFg2Pdaz-303" value="司空后台" style="text;html=1;strokeColor=none;fillColor=none;align=center;verticalAlign=middle;whiteSpace=wrap;rounded=0;dashed=1;fontSize=16;fontColor=#6C8EBF;" vertex="1" parent="1">
          <mxGeometry x="2454" y="1939" width="68" height="20" as="geometry" />
        </mxCell>
        <mxCell id="9_KCnbI3byb7aFg2Pdaz-304" value="H5" style="text;html=1;strokeColor=none;fillColor=none;align=center;verticalAlign=middle;whiteSpace=wrap;rounded=0;dashed=1;fontSize=16;fontColor=#6C8EBF;" vertex="1" parent="1">
          <mxGeometry x="2458" y="1978" width="68" height="20" as="geometry" />
        </mxCell>
        <mxCell id="9_KCnbI3byb7aFg2Pdaz-311" style="edgeStyle=orthogonalEdgeStyle;rounded=0;orthogonalLoop=1;jettySize=auto;html=1;exitX=0.5;exitY=1;exitDx=0;exitDy=0;entryX=1;entryY=0.5;entryDx=0;entryDy=0;fontSize=16;fontColor=#6C8EBF;strokeColor=#6C8EBF;strokeWidth=1;" edge="1" parent="1" source="9_KCnbI3byb7aFg2Pdaz-309" target="9_KCnbI3byb7aFg2Pdaz-11">
          <mxGeometry relative="1" as="geometry" />
        </mxCell>
        <mxCell id="9_KCnbI3byb7aFg2Pdaz-309" value="member_id" style="rhombus;whiteSpace=wrap;html=1;dashed=1;fontSize=16;fontColor=#6C8EBF;strokeWidth=2;fillColor=#FFFFFF;strokeColor=#6C8EBF;" vertex="1" parent="1">
          <mxGeometry x="735" y="156" width="99" height="82" as="geometry" />
        </mxCell>
        <mxCell id="9_KCnbI3byb7aFg2Pdaz-315" style="edgeStyle=orthogonalEdgeStyle;rounded=0;orthogonalLoop=1;jettySize=auto;html=1;exitX=1;exitY=0.5;exitDx=0;exitDy=0;entryX=0;entryY=0.5;entryDx=0;entryDy=0;fontSize=16;fontColor=#6C8EBF;strokeColor=#6C8EBF;strokeWidth=1;" edge="1" parent="1" source="9_KCnbI3byb7aFg2Pdaz-313" target="9_KCnbI3byb7aFg2Pdaz-24">
          <mxGeometry relative="1" as="geometry" />
        </mxCell>
        <mxCell id="9_KCnbI3byb7aFg2Pdaz-313" value="&lt;font style=&quot;font-size: 12px&quot;&gt;下游服务&lt;/font&gt;" style="rounded=1;whiteSpace=wrap;html=1;dashed=1;fontSize=16;fontColor=#6C8EBF;strokeColor=#6C8EBF;strokeWidth=2;fillColor=#FFFFFF;" vertex="1" parent="1">
          <mxGeometry x="357" y="533" width="120" height="60" as="geometry" />
        </mxCell>
        <mxCell id="9_KCnbI3byb7aFg2Pdaz-317" value="行为数据DB" style="rounded=1;whiteSpace=wrap;html=1;dashed=1;fontSize=16;fontColor=#6C8EBF;strokeColor=#6C8EBF;strokeWidth=2;fillColor=#FFFFFF;" vertex="1" parent="1">
          <mxGeometry x="3714.5" y="1442" width="120" height="60" as="geometry" />
        </mxCell>
        <mxCell id="9_KCnbI3byb7aFg2Pdaz-318" value="PV数据DB" style="rounded=1;whiteSpace=wrap;html=1;dashed=1;fontSize=16;fontColor=#6C8EBF;strokeColor=#6C8EBF;strokeWidth=2;fillColor=#FFFFFF;" vertex="1" parent="1">
          <mxGeometry x="3986" y="1442" width="120" height="60" as="geometry" />
        </mxCell>
        <mxCell id="9_KCnbI3byb7aFg2Pdaz-321" value="D" style="fillColor=none;strokeColor=none;align=left;fontSize=14;dashed=1;fontColor=#6C8EBF;" vertex="1" parent="1">
          <mxGeometry x="2637" y="1437" width="260" height="40" as="geometry" />
        </mxCell>
        <mxCell id="9_KCnbI3byb7aFg2Pdaz-322" value="test" style="html=1;shadow=0;dashed=0;shape=mxgraph.bootstrap.rrect;rSize=5;fillColor=none;strokeColor=#999999;align=left;spacing=15;fontSize=14;fontColor=#6C767D;" vertex="1" parent="1">
          <mxGeometry x="2669" y="1446" width="393" height="30" as="geometry" />
        </mxCell>
        <mxCell id="9_KCnbI3byb7aFg2Pdaz-323" value="虚拟列表" style="ellipse;whiteSpace=wrap;html=1;aspect=fixed;dashed=1;fontSize=16;fontColor=#6C8EBF;strokeColor=#6C8EBF;strokeWidth=2;fillColor=#FFFFFF;opacity=60;" vertex="1" parent="1">
          <mxGeometry x="2677" y="1545" width="99" height="99" as="geometry" />
        </mxCell>
        <mxCell id="9_KCnbI3byb7aFg2Pdaz-339" value="" style="endArrow=classic;html=1;fontSize=16;fontColor=#6C8EBF;strokeColor=#6C8EBF;strokeWidth=1;" edge="1" parent="1">
          <mxGeometry width="50" height="50" relative="1" as="geometry">
            <mxPoint x="3018" y="2620" as="sourcePoint" />
            <mxPoint x="4329" y="2620" as="targetPoint" />
          </mxGeometry>
        </mxCell>
        <mxCell id="9_KCnbI3byb7aFg2Pdaz-340" value="" style="shape=curlyBracket;whiteSpace=wrap;html=1;rounded=1;dashed=1;fontSize=16;fontColor=#6C8EBF;strokeColor=#6C8EBF;strokeWidth=4;fillColor=#FFFFFF;opacity=60;direction=north;" vertex="1" parent="1">
          <mxGeometry x="3010" y="2647" width="440" height="20" as="geometry" />
        </mxCell>
        <mxCell id="9_KCnbI3byb7aFg2Pdaz-341" value="&lt;font style=&quot;font-size: 18px&quot;&gt;技术类需求&lt;/font&gt;" style="text;html=1;strokeColor=none;fillColor=none;align=center;verticalAlign=middle;whiteSpace=wrap;rounded=0;dashed=1;fontSize=16;fontColor=#6C8EBF;opacity=60;" vertex="1" parent="1">
          <mxGeometry x="3172" y="2675" width="108" height="20" as="geometry" />
        </mxCell>
        <mxCell id="9_KCnbI3byb7aFg2Pdaz-344" value="" style="shape=curlyBracket;whiteSpace=wrap;html=1;rounded=1;dashed=1;fontSize=16;fontColor=#6C8EBF;strokeColor=#6C8EBF;strokeWidth=4;fillColor=#FFFFFF;opacity=60;direction=north;" vertex="1" parent="1">
          <mxGeometry x="3460" y="2647" width="440" height="20" as="geometry" />
        </mxCell>
        <mxCell id="9_KCnbI3byb7aFg2Pdaz-345" value="" style="shape=curlyBracket;whiteSpace=wrap;html=1;rounded=1;dashed=1;fontSize=16;fontColor=#6C8EBF;strokeColor=#6C8EBF;strokeWidth=4;fillColor=#FFFFFF;opacity=60;direction=north;" vertex="1" parent="1">
          <mxGeometry x="3910" y="2647" width="417" height="20" as="geometry" />
        </mxCell>
        <mxCell id="9_KCnbI3byb7aFg2Pdaz-346" value="&lt;font style=&quot;font-size: 18px&quot;&gt;功能优化&lt;/font&gt;" style="text;html=1;strokeColor=none;fillColor=none;align=center;verticalAlign=middle;whiteSpace=wrap;rounded=0;dashed=1;fontSize=16;fontColor=#6C8EBF;opacity=60;" vertex="1" parent="1">
          <mxGeometry x="3623" y="2678" width="108" height="20" as="geometry" />
        </mxCell>
        <mxCell id="9_KCnbI3byb7aFg2Pdaz-347" value="&lt;font style=&quot;font-size: 18px&quot;&gt;功能新增&lt;/font&gt;" style="text;html=1;strokeColor=none;fillColor=none;align=center;verticalAlign=middle;whiteSpace=wrap;rounded=0;dashed=1;fontSize=16;fontColor=#6C8EBF;opacity=60;" vertex="1" parent="1">
          <mxGeometry x="4064.5" y="2678" width="108" height="20" as="geometry" />
        </mxCell>
        <mxCell id="9_KCnbI3byb7aFg2Pdaz-348" value="" style="shape=image;verticalLabelPosition=bottom;labelBackgroundColor=#ffffff;verticalAlign=top;aspect=fixed;imageAspect=0;image=data:image/png,iVBORw0KGgoAAAANSUhEUgAAAv4AAABvCAYAAACUwMR2AAAgAElEQVR4Ae2d+bdVx3Xn+5/pH3qtXllZ3W0UJ2nHdscZnNitxI5bThzbsaLYkmUFzZJBQrMQGjAIJCQQIIQQIDEIARIaQIhZzPNjnufxMc/V61OPfdj33HPOPfeN9z2+tdZ5dU4Nu6q+Vefdb+3aVee/BDkhIASEgBAQAkJACAgBISAEejwC/6XHt1ANFAJCQAgIASEgBISAEBACQiCI+GsQCAEhIASEgBAQAkJACAiBmwABEf+boJPVRCEgBISAEBACQkAICAEhIOKvMSAEhIAQEAJCQAgIASEgBG4CBET8b4JOVhOFgBAQAkJACAgBISAEhICIv8aAEBACQkAICAEhIASEgBC4CRAQ8b8JOllNFAJCQAgIASEgBISAEBACIv4aA0JACAgBISAEhIAQEAJC4CZAQMT/JuhkNVEICAEhIASEgBAQAkJACIj4awwIASEgBISAEBACQkAICIGbAAER/5ugk9VEISAEhIAQEAJCQAgIASEg4q8xIASEgBAQAkJACAgBISAEbgIERPxvgk5WE4WAEBACQkAICAEhIASEgIi/xoAQEAJCQAgIASEgBISAELgJEBDxvwk6WU0UAkJACAgBISAEhIAQEAIi/hoD3QaBK1euhD179oblK1aFZctXhl27dwfCepo7d+5cWLV6TdjYtClcunSpWzTv3LnzYefuvWH12g1hy7YdofnU6Yao97Vr18LhI0fD2vUbw569+wPPbXHnzp8P23bsCus2bApnzpxtiyjlFQJCQAgIASHQ6Qh0GvF/4OE+4U/+7Nt1X0uXLU9Agez9rvf9YcDLfwgnm5uT8I682btvf3jsiafDw79/LGzdtr0ji5LsHASOHz8RnnvhpfDH/+ub4b/+tz+quAh7fsDL4ezZYhL2+hsj6h57ve9/OLNGi5csrVsWY//q1auZ8ghkbPXt91T427+/taJ9tPdHP/nn8NSz/cORo0dz89cbMW7ilPDzO+4JI0a/W5X1woWLMY74Y8dPVMX7gI2btoR+z74YfvrLO6uuB/o8FZauWO2TZ97/2296J+VRZq3rjrsfyJTjAw8dPhoGDnmzqk4/u/234aG+T4fpH3/mkxfeM1mYPXd++PU9D1XJoy4DBg4NBw8dKZShSCEgBISAEBACjYBApxH/X91xZxWhSZO4rOe58+ZHnNDsQp4sDUSuMxwTFivzl7f/ujOKVBkOAbT63/2r7yd9YH2R9m/90W3h6LFjLmfl7aN9n6gpIy3z57/890oh15+mTptetyxkX7mSTfy//Gpe5qQmXZ///e3vhfUbNmbWqd7Avk+9EEnsxMnTqrI2bd6WENwrBZOV+Yu+TtJlEX8Lmznri6oyLICVAktX1oe8F7k5Xy0oJfOZAX8IZ86eKxIVqN+9j/SrKY86LVm2slCWIoWAEBACQkAIdDUCDU/8Fy5eEjG6cOFCBTlCy9sZ7vb/+G1C8n5w6487o0iVcR2BNWvXV/Q5RBgN/12/uzegjfcTQeKYILBCk+Xu+M3dST+mCXXeM+VkubdGjalbFvXO0vi/P2lKlSw0/KwyMen8q7/9YVX80uUrsqpVVxhadYj2spVrqvJ9/OnsGHfPg32r4ixg2oxZCRmG9I4dPymsXLMunDp9Omzasi1MnjYzEG5kfvz7Uy1rhb9334EkDZMQSHuta8HipRUy/ANxViY+KxrU5/SZM2HXnn1Vmvs7ez+Say52/sKFwKqFySMt8tHuNzefCqvWrA9vvDUmiScddZcTAkJACAgBIdCoCHQJ8X9vwgetwgOShNbztn/5RbTvbpWQOjOtXLU6QPghYGhm5ToHgfPnL1QR+1mffVFlo/3Ou+MriPH9D/0+s4KsCBjBP3TocGaasoGYmpmsmZ98WjZbVbr0KhbjbMfOXVXpZn36eVIe5TL+2+JOnDiZkNXjJ05WiXp12MgYP+i14VVxBOzeuy/JzwQCm/4sB9HGjMeI8779B6uSrV3flMRTr7Y49hXYZAN/89Zs0zwI/QsDhyblfvFl9nv99rsTkjQvDx4WLl++nFk99g9YuZj+ZE3wMjMqUAgIASEgBIRAJyPQrYh/J2Oj4roQgclTp1WQXTb05rmhw4ZXpD1z5kxVUr860NYNwQ892jcpry3a9wULFydyqB8bR/Pc2HETkrSQ/6w25uVNhy9ftTYSWkh7luv98OMxPs8OfuiboxJCjFlQkcP8xYj/2PHVE/658xcl8W3deDvqnfGJrKJVAeoL+bdVDzT56bJPNp9KZIHHpRzSb22fMm1mkn7ewpZVSouTLwSEgBAQAkKgURAQ8W+UnlA9KhB48pnnE6LL/pAit23b9iQtpLipaVNFcmzrTUMPwW6r8/tVdu7a3WpxbBi3er34yqBCOWz+tbT4bdlo/v6UjyJJ7fNk/6oy0VYbUd/QtLkqnoD7Hn0ipkGbX8tBsE1e/1eGVCWfOv2TGP+rO++riqsnwJfz8GPPlMrKpIONyVzpU4gwXbJ6sypRyzExeO6lwVEWZlByQkAICAEhIAQaEYFuRfzffW9CePzJZ+LVtKmFlEDqOPHEwovMcTghyNL1e+rZQg2rddaCRYuTPJiaZLljx46H9ya8H09lwVwDcyTsw98YPjJgp17LsY9h8JDXA3boEFM7xWXKhx8FjnbMck9fbzMEuUhTDCm2Nr89dlyWqBiG+Qt1YAMz9ef62S9ujyco7d69JzefRWzZui2MGPV2tL3H1h7TKIgtmup9+w9YstL+f977YEJ0x0+cVJgPDb4nxWnMORXI4sG2rc6fvNMmzfuKVeHjWZ/G6/Dh4lNh0pObU3Ucl4k2GlJqlxFafAszH+23xTMxsHB8I8fPDhgUN7xmbQzOwhZSj0zypZ1p6ZlMtMWtuL6KQTkLl+TvAShbhm3oveveR8tmUTohIASEgBAQAg2PQLci/l7T+tkXcxJwn+3/YkLs2EQJEU87CDRk1gggpLSMe3PEqCQP5aTduvUbKuSafO/nEW4Iq6+7z2P32KbvP1BNnC0eH2Kb5zgVydL+9Ge/zEzGngtLk+cXnaJU65Qb+uTrpcsyy26PQE7+8fVOT5a8tjy9YZdjYclfD4GnPVaerz8TMCZJ9EfadMSna809Y8jKrHfyknUMpZH7evwLFy/WXXWviecI0bTDdp46MLHwDvwwtyn7HYPRY2/Y42ed1IMsrjLO13n4qLFVWXhv+TZA2bpVCVCAEBACQkAICIEuQqBHEH8Ilz/ykdNQ0u6FlwYmxAmtevOpciSgiPhjUmJkzHw03VknsQx9/c10lQIbUS0fPoQSUufDuKe+6aMqfZq2EP+Ro9+pKs/L9vd/ePW1qjZM/GByVX4mK9TZ5+XeTmiqEtLGAN+3aOPTjkmH1YUVEsxzWCXyBJ54nl948ZX4kbC0DHtmg6fJop+ZODBG/KTS4u978JH4sTHL21rfT96QXe/m+E8+mxNP2eGknXETJycafcgyJ/j4y+zeIeOkt2vW5zcm2vW0w9u+o5VPu98/8XysDwQbwo2ZzN3390nqSD2oExuN+XBWnsO8x9JaGjbtPv7MgMSWn3iuR/o9FziKNG9y5jcc21GkR48dD0PeGFlVN8ydWLVgIiAnBISAEBACQqDREegRxB+Q2fxphAvfzv8njrPPfRzmO2VdEfEfNOT1RC4kEHMMc3xh1p8dD6n0m0rRMPs6vTp0WHLOO0eXzpu/sIKYjhs/0URH3+dtLfH3mnDkMemgXDTmTKb4UBUnyPiy0ufI+/g7f9s7mVBhK85qiJ/IYL7T3m7zlq0V9csyx8KcxtqA+ZLd5/n0VXqfgNUbkxzLZyZN9pznsyJSxtHvlMu1eu26MOH9SeGRPv2S8pA/cPDQMqJy09gZ/ZxCk+WeeO7lSI7Hf5B9/GZWnrwwPv5lp91wLGYW0caUBjIOqTaTICPoWX7exlkzUaIcSLp9pyBLhoVRZladKMPS8CXiz2bPTdph4WmfyQlfLpYTAkJACAgBIdDICHQJ8YcM9nn8yZpX+iSXPFMfA5iz/Y18oYHla66QbX+UI7bx9bgi4u9tvbPIHXbYXqvsJxyYKvm6ZtXJl50+wtHy4reW+KORNjnglV5VoE7I9qsp/rhMTKosP36WLT/Hofo0p09Xn7iT1fYyYdTX1409ElkufSKO1Ye8v77rnorxYXF55D9rlYc8rHCwP4KPfpkM72eNj3RdOSHI5/H3yM6a1KRl1Hq2M/rRemc5O37z6+X5pyhl5UuHYQZjm4AhyXmk2CYGRqQh/5z5T/l8FZgVg/SXgbPIv61U8BVdmwQg8+kXBoYPp38S1m3YFFj54BhPX2YW+TeMyD9h0ofJJAC5rEws+np5/P4Bx33aCUikpQ47dtXeD5PGSs9CQAgIASEgBDoLgS4h/p7QFN1zbr93tYh/2uQH+/lRb49NyBREjzT1OE++0zb+nnSinc1ybCjGNIMLW3JzH834OKkXpDHLXpi6Wt7pMz+xrNH3uLWG+CPby1i2PP+ro0xYfFo00zj2Hvhwv+LhK0tbrR314u/l+HtWJfxqAkQ97+NdfmWG+jIRZELiHaZf6W8CIDO96TaNBX0Hqfdnt1+8eLFqxYZyOb6zyBURf1aUnnl+QObkrEhmOg6iC0nlw1Zpx8e3iONCa95ahxadr+KaLMhzlsNsytLgv/zqsPil3Ky0kG2flo9neefjuIfcN23e6pMk93xPwCY4pMXkyTtP9m2SwIQi7yvGI8e8l9QN8s9Kh5wQEAJCQAgIgUZEoEcRfwBOm/x4Ypome2U6pIj4e1MeyoHclj1tZe/efRWkmS8Er11XSWaK6ufb1Rriz4TEyzAyn1Umduw+7abNW5Jk3radiRCnKnmTpiRhO94wSUp/ibdo4sJXcK3+aM6zJllWPU5SsrT4w958y6Kin56wHTx4qCLeP2xs2lSx4kPZRe7AwYOBfRRcLw0cHL/c61erqA+TEcyxWuvstJrZc+dXicCsxUhzVWQdAf5rthDmPHfiZHNCmF8fPjovWRLuyb8/ipSJhif+kPUdO29MshMB7mb/gUMVtv/nzt1QCLw74cZRnsgd/PqITJMgJy7a+Vsdsr5X4NPqXggIASEgBIRAVyHQJcQfkxxsmGtdEE7vamn8La3f7GkkbuCg6jPELX2RX0T8V69ZW0ESrSzMPdjMC7nmuNE897ve91flh0gzoYCAprXNXo6Vhd8a4s8XZ70Myi26fFq/SZcjVn0c95BT2oYGHRv89nRMKtK4ffr57MIiWIlgQsJVhJUJ8fIh3t5hXmSytm/P/mKtT582M0qPaZ82737V6jUV5khxJeJI8fGfWbL8Gf27MuzR2cgLeWXDbWudP/8eO/u8r92afMg/X+zN06ZbOvO9+dBp96E208xT/9dKTCKQN+a995MJA2f6m7NvCxiRL3Ma0IULFxNZnKIkJwSEgBAQAkKgERHoEuKPZrw1rizxx5wEcuQJaZFGu6guRcSffKwwZJ1gY2VDptEaZ5UPiU2vGlg+8+/+z/sCxC/tLB6/iMz6E2H8cZ5pQurl1bqf9ennFdXJIv9eBiY5aMrb6phE+a/mUkYZ2/l6y/XtYRy1xfG9CY9F3qbhWmXwnQU/pjl9qJbjPcAMxS7buAuhfee9D+IJP5zyY5cRXXzLgz/nqwW1iorxk6ZOT8gvm2whw+3txoybmJThT/nxG4P5WnAZZysctNebI30+56ukDOLKOtpsGGZtGi4rR+mEgBAQAkJACHQUAj2S+H8x+8sKsgXxmjQ52864FrC1iD/5IfBogXvf/3AFOfOEj02k2H5nOUw8mBzw8S+fx997LTsyfFxriD94eBkcc1l0Qd45ApMri7xyShEy8za3UlbRtwCycPFhEClvsoO81k4gvdys+7S5WF6/ZeVNh/mvBlPnRYu/Ticp/cyqlfUZpxPVcv5YSiOkrfFfHTayVlGBYy9N9j0P9g1ZZ+nXFFIiwcIly5JylrvjQe04T+pw4NDhEpJCrKPV+Y2R7yR5PG7Y7Jd13sTpzJmzZbMpnRAQAkJACAiBTkOgxxF/SHCWBh5tKVrTel0Z4u9lQvTQ8o4e827wp/5A2PI2APv8mILM+fKreOKRkTx86u+1iD6uyCTI26x7jT8TFZPRVq22rz/3rG5AniGqXktNeXkbgNMy0s/PvfBSUl/kYEZUxjEpGzpseOC4VK4ypwr5SVEaG+JMln09uqgefDPAcMa3PGjjOdmJy5/2VCTL9yVjvJbDzh3bebuM5OJbmPn2IS3iINEWjr92/cbCojgv32RzPOepkic3sQl23YamsKHpxp6RwoJCCO9P+Sgpa8u2G6ZWnLBjdcg69SdLLif9WB6v8fcf8KrHbIeTkkyef1ezylaYEBACQkAICIGuQKDHEX/Oijeixb03D+Kc+XpdHvGH4KPl5jp/vuWUm7RsSKc/eYYz2c2Rx/IjK8t9PvvGkZ+0ia/CmvOEmr0See7FVwYleHjij3264YSfdRSnl4mtNptivc02z9YGH+7z+XPvKQfyWq/j7Hpf17dGjSktIq1x54NjtRxfdbby0jb+jCGL80eb5sn0kwjy2YfjduzclcghPOvrzGmZfvLD6lC9zs62/2Bq9XcFNjRtTkhrWXt7yudDWEZ2IcnY7Jd1nsR7s52i/NYGymw+dTpJun7jjfpzclEZ5/cjeBt/8noSzx6EWo6vGnscaqVXvBAQAkJACAiBrkCgRxF/f+IKxPjwkSPxCE0javj12prnEX+OZjS5aF/zTvMZ7D7y5U91+afb/jXJn0dk0ZxbGfho0c35CQ11zHKsHvgJgif+pPdfGMZ2Pk9LySk+vh6mNfeEPO8MfcrxH/lKn5KTVW8fRnpfdr35kcWJSSaDVRiOAs1z/iu/5EmXN3zk6EQW8Wj08xwrTP7IV9//bLT1fcMpPkWOCRb7RawdWV+nLspPnJ11701kLI+Z6nAufVm3dMXqhOxiY1/vMZZe4z5wSPWXrdP12L13X1Iem3zTjq/0Qr7Z6EvaIscE5Y67H0jkpU1zNm3ZlsSVmUhM/nBGkp7VBzkhIASEgBAQAo2IQI8h/unNj/4bAMPfukHWIFtHjh4t3Rd5xB+7b0/cOGM97SDI/jhGbOjNYQpkJA4/S+P+0fSZFWm8qZI/m556cHSkd2gp00depol/+tx6VgfSqw9opv3eg7t+d29SDF/m9W3I+sBUWrPNaUJl3dtjx1XIx8SmNc5P0qgv7eHLymmXTgeuTB69w5TMt5k0WaY6yPeknzyYV3nHsZ1eFuMj6zsHyEqbjflJoJeZd3/8xMmEmGZpsLHjhzQPem1EnoiKcL8xljPxDx0u/06ZICaa9uVeyuZUoTzHKUQ2cSHtgsVLq5KShjgu0u47cLAqDQGQfv+RL2zzs1z/l19N5LHJOc9NmzErScek48jRY3lJFS4EhIAQEAJCoEsR6BHEHwLhSS4E139QCTMUT5wwASrr8og/+b3pBQSOMjiq9IPJUwOafq+hJX79hhu20kw+POnjHjOSMWPfi/br/qu6xHnCTdnpDaikYXMxWni0935SYuWkiX/aFIl05KMsJgGcKGR5zU9/a8BPCkhDGRxlyn4GPnhm+fBZGckitll94VdvTAZEuszFpCjtmJiZHPNZiaCOaM/T+0LAId1Wk8nH1EyG+fR9335PxQ3SfqxZPGMi7Vgl8qZgpKUebASnHxlf4GkyzGds1euWrVyTEOKsvHa+/4xPKk9sykrLh7GMYONP//izsGLV2lJXWrOOLH8UJx/+YiWhuflUuHT5cvziLl/y9aQfop3n7ANlRv45BYjNupwwhBYfW36v6e//ypCK/xVe7sFDRyra+eTzr4RPv/gyEnuO+MQ8yO+NoB15Hw3zcnUvBISAEBACQqCrEOgRxB9SZaQIP+t8dT7e5dNkaaezOqGI+GN+4fcUePn+HhLJSUNpx1GbWQTd5+UeIm624V5G2n48nY9nfxJOmvgjCxv8NPnMkkNY1oejMHVJk/+s/JDhrdu2++oX3nN6UJacMmF9Hn8yU7Y/prNIDuTbf6QsSxgfDCvTd5ST/uqyl4c5V60jXX1d6zVVs7ImTp4WSaz/8JXFMXE2Il9mo60/S9/ylfUh9WmHZt5r4ItkffLZnHT2imfaYm0tkkMcpN0rCCoEXX/Ys29/uPv+Pgk+eTIh/Zu2lB/fWWUpTAgIASEgBIRARyPQacTfa+S9GU49DfQyOPkGB/n2xIgTXPIcphSWFnKXNmvJyof9veXhw2BpB9HAZCaL/EIMIe1ZZiUmhy/4kiaLRCKTFQDKyHOQf79fwOqKNpvz/735CkdtZjm08CNGvV21QmGy+j31bOHmU/I//Wz/KtMW8qOhJ67Irj6rTunVAqtLGf/xJ5/JEhnDMMvxew7S8tiAXWS37wWz2dp/7Csti70FZY/vpB9JnzUOkEtc1vccfH2K7ge9NjyS1yyTFW8GVGZFxp9Xn0eE88JZGchyfDkXkxtv+uNlPNT36VD2fH7ko93Pm6Cg8Z8ybWbhe+XryIrhqHfGB0yafJ3s/rmXBoedGR9E8zJ0LwSEgBAQAkKgERDoNOLfCI3t6Dpg988Z95jheHv8suWifWdlApOgrA9+FcmBWK9Zuz5+Dbk1X4dFNhMhTpeh/lxMWDAHqsexr4EvGnPSUN6G53rkdVRa+getPXb3TCLB/OzZ1p29Tjtp7+w5c6M8CPqxY8dbXXX6gAkb8sDy5Mnap8q0urAGzMhxmhzzCdHntCEmJq11nFC0Y9eeKGvlmnVh774DpQl/VpmYIK1YvS58vXxV1PD7rwdnpVeYEBACQkAICIFGQkDEv5F6Q3URAkJACAgBISAEhIAQEAIdhICIfwcBK7FCQAgIASEgBISAEBACQqCREBDxb6TeUF2EgBAQAkJACAgBISAEhEAHISDi30HASqwQEAJCQAgIASEgBISAEGgkBET8G6k3VBchIASEgBAQAkJACAgBIdBBCIj4dxCwEisEhIAQEAJCQAgIASEgBBoJARH/RuoN1UUICAEhIASEgBAQAkJACHQQAiL+HQSsxAoBISAEhIAQEAJCQAgIgUZCQMS/kXpDdRECQkAICAEhIASEgBAQAh2EgIh/BwErsUJACAgBISAEhIAQEAJCoJEQEPFvpN5QXYSAEBACQkAICAEhIASEQAchIOLfQcBKrBAQAkJACAgBISAEhIAQaCQERPwbqTdUFyEgBISAEBACQkAICAEh0EEIiPh3ELASKwSEgBAQAkJACAgBISAEGgkBEf9G6g3VRQgIASEgBISAEBACQkAIdBACDUP8L50+E/Z+OCOse+ypsOS2n4V53/k/YXavW8Lsb/S6ua5et8S2gwFYgAnYyAkBISAEhIAQEAJCQAgIgbYg0OXE/9SmzZHg3pQkv+ykptctESOwkhMCQkAICAEhIASEgBAQAq1BoEuJf9OAgTeXNr8s0S9IB2ZyQkAICAEhIASEgBAQAkKgXgS6hPijucaU5aYz4ykg9PVgAXbS/tc71JVeCAgBISAEhIAQEAI3NwKdTvyPLVvRYr/fTiS4HsLck9KyBwIs5YSAEBACQkAICAEhIASEQBkEOpX4o6WOm3ZF+ttltQMspfkvM8yVRggIASEgBISAEBACQqBTib/Me9r/hCIwlRMCQkAICAEhIASEgBAQArUQ6DTir4287U/6zXRJG35rDXPFCwEh0BYEmi9dCwfOXgu7T18Lu3R1KgZgDvb0QXdyGjN6Vxr5f0V3fa/a439ApxB/zFGMpMrvmAmATH7a43WQDCEgBDwCl66GSDob+Qf8ZqobE4DLDc7/NWZE+LvbO8l7xbi9WVynEH8+RFUv4V/8k5+G5g1N4VLzqbDj7bGZ+df26RfjSbtnyrRwdu++zHT1lt0d04OxnBAQAkKgPRHgB7G7/Yj39PrSJ43sNGb0znTHd7Ce9+rhx54JP/3lnRXX7x7o28ivZUXdOpz489XZ1nyc6+iSpeHSqdOR0FPjZf92RxWpX/D9H8Q01qIdY96tSpMm8XP+5Jth5T33hSW3/WtV2jUPPhoOfTU/LLr1R1VxaTkd8bzg734Yy2dCU7f8XreU+sLv5cuXA1faXbt2LYZfuXo1XL16Nd7jp92VK1diHOktT1Y6n6+ozN1794XtO3dn1slkHDt+IjRt3hbOnTtvQVV+mTRVmRTQ0Ajs238w7Nm3P46zhq5oQeVOnDgZxoybGJqbTxWkKhfVnrLKlIipRnf8Ab8Z6pxn9nP+woUw6/M5Yez4D8K58/n/L8v0f2vSaMzonenO71/ee8W78OW8heGRx5+NrwWk/8nnXwnvT/koXtwThuOetI3sOpz47/1wRv0k9hu9wtl9+8OeKR8GyD0ujwwf/HxOgi+a/zzCPO87fxnO7NgZwjWnLbl6NTS9eOMjYvtmfBJlrex9f66cPPntEb78jpaBc3D23FaVD9a13B13PxAH6NfLV1Uk7f/KkBg+5r33wxdfzov3vR9+vIJ07dqzL4b/7PbfhlOnT4fZc+fH5+GjxlbIsoczZ8+FQa8Nj2l4KS5cuGhRYeGSpQE5Nmvmfu78RUk8N5C+O3s/kqQh7dvvTghMTsyVSWNpO9tnsvLZ7LmtLnbB4qVhxep1rc7fXTMyNn99z0NJv//qzvvC5q3bu2Vz6EPGrb1vbRkTaVm1AGlLWchuRM3tByuaw4Id52/6CUmedvKZAX+I4w3/9JkztYZIu8c34phpOno5rD98OXPMFMXtaL4alu+7mJmvDLn9cuu5MGzOsTBr45kKGTtOXQ1vzTseNhzJrlMZ2VlpVuy/FMYsPFFRVla6Rg7beepqoB0bj7YvNttOXgmLd18I+EXtz3uveFH4HXpp0OvxneF/OqTfHPeE4Uhz+133WVRD+h1O/Ftj5gOJRntvDs0/E4A0uWYygIP8kybP1Gfut74dLh4/EdOe3r4jbBsxMuye8EG4fPZcDNv8hyFRdncn/hXCj8oAAB4WSURBVGXMfZauWB0HKBMAtPe4DU1bYti//aZ3QGOEJh/Sz0D+fM5XMQ1/+jzZP4Z9OL1lglRE/Ddt2R6Qhwy7jPhbeT+/454w+cMZAXmWdt2Gplge2iriyfvW2+PCJ5/NCQ/0eSo+j5s4pXSapPJdcIPWjXa11j3U9+nw8uBhrc3eLfOx+kOfv/HWmMBq0P4Dh8ITz70cxwITye7oDh46klS7rWPCy0qE5ty0tayO2Mj78YYz4Zev7yz88S36Yf72403h+emHWp2/SHZ7xrW1nbXqQt9kORQo/E/tKpc1Zr7adi7899+uDaPmH0/6beHO8zFsyOyj4RsPbAh3jdydxG1vvhJueWhD+NWwXTHsz3+/MTz43t4k3mMDQXxq6sHwP+5dHy8ft/bQpfCrYTvDH929Npb1g/5bEkJZFIeMRybsi/KoN3WBxHvZte6p7x/fsy78+JVtYejsoxV5Nx+/Euvz+aazFeG1ZNaKH7fkZGxrrXSNGv/h6lMJ5uB+64CtYd72G7gzTgi3i/60ttz+xq4k3OIt7oUZh5I4xsI/D96ROwHIe694n/hdMrJvnCbtk85PArrqPaxVbocT/7Yc4Wnkf+5ffKeK9DMJQMO/sf9LMY57THjSkwOeNw8aGnFobtpUEc8qACsAl8+ejeFZxH/3xA/CpZPNMR2Th+1vjU5kYDZ0ZMGicPXixRh/6fTpsK7f00k8dWKicfXylXDlwoVwbOnyMOebf5bEU9/zBw+11OHMmbBj9Duxnq3V+Jc92rPfsy/GQTxl2sxI8u95sG989hp3iDuDGvLNZGDJspXxGQ28adyLiP/kaTOj1hY5zJSRZcQfUsczGkxza9c3xTBs53ALlyyLz8PeGmNJwqVLl2IYeTEfKpMmyXz9Bk0YhMgc93ff3ydZ2UCzTH0xHTpz5mwYOOTNSN7BAdwwt8BBUEnH6gj5+cH9/RPPhyNHj8X414ePTlY0SDf9489i+LyFS5L05GMiluVs4kVbyQ+OuLXrN4bHnxkQZd/7SL9EbpaMjz+dHZg8fDB1emwDkxD6ePHSFYGJH3VmWdKbBNAPJv+Rfs/FfjfZYEHfPffS4Jh32co1MYqJGOMCea8OGxlGj50QXhjY8s6RAExeHPR6HEu0edLU6Sayyh/yxshAu7zDlKz51OlogubD7R75AwYOjW2kXUPfHBXHisUXYWb9iHmEtYGJ5p69++NEkzbRF6x24epNz+SF/oOwt3VMeFnUhVWRaTNmBfqJet5176OB/sPllcVkf/jod2NbGQ+s9OVNJuyHsz39dxadiISotTK/3nMhV3vbWpkdka+t7SxTp9jR1//s2r03jjP+X/C/ivfgwsWLwf4HjJs4Ob4fvJu4onfC8tTzf8PqkldviD3EzTSutw3aEZjEoeFlQgBZM5L30ieHI4E1bXsR8b9j+K4oF5II0fblvzzrcPif960PTDzmbDkXSWWf9/fHNEVxc69PVN77+mRYdeBS+P5zW8LfPru5QrYvJ+ueyUKa8Fs62kydDAsLb6u/6djlbr0aNnllc6BfVh+8FMcC/c7EzXBh/Dwz7WBYvOt8vFbuv5TEMUn8f3/YnsQt2X0hiWPF5YtNZyPe3EP+B312JIk3+ebbWE77vFtG/FnB5d5fZt4j4h9Cmz7YtWVoi7Yzi8z7MAh01oqApTk8v8XeCht+CzP/yz//VmBFgOc08d/xznux76+cOx+Or1jZQvBDCJsHtawQYIqEg9zvnzkrXL10KT7P/+vvByYV5MOdWLUmnNm1q+V+3fpYFvVlQoA7u2dvywQgPoXQWuLPB73KuH0HDkYCDVmwQQpBTDuIHoMdosAPCfer125IkhURf0xw+OHBQXzIa8QfLTbPZv5AGiP+/GjhMJEhDSTMHBMOwriw/y6TxvKaP3LMe5F427OZEu3YtScGMWExLT3tByNIOwSL8L5PvRDTNW3eGutBfYnHRIq09sNKPJMMwiD7kLa9+w7EPExmIPwQaNpyMsP+G3IOsWOVg/wQX8gn8phgsBLz2vDRMf+nX3xpzanwJ06eFuORQV+Rj/Ko84xPPo8TAp5tIgSmyKeNyDezgW07WsaurfgQP3PWF+HwkaOBySMyIJrksU1PNp4YA0wsaQurNuBDevJnOUgsssaOnxTz0D+j3hlfQeR9PialTCYYY7Tp3QmTYhtefrXlf0ctzKwfyQ/5p2+on/UlbQIva0+96cEOefR9W8eElwUGyOVi7DE+eUdt0pRVFnnM9G7CpA9jH9AvYOwnf4av/RCm/fvG7k00c998ZGMYveCGeQEE765Ru8N3n9gUf2B7v7MnYNoAKSEtmllIHsSIy0wTIFaYRVhZaFhJbz/ugz8/EiACXD4d6SECPxm4PZbHj/rv3t6TyCF+0ormKOs/x1SGf6dfUySf5PnNW7tjfnzybDlxJfzwhS0xjPp+76lNFVrfvDJrtRPZL358OJJV5KK1NIJL3KufHwk/HbwjPDCuRWMMmf1ozamK9pCOyzvMevg/wXhg4ss9E2b7H0AfT53+SdwrVeudsDxl/2/4eljd0j4adnBG+zpj3Zk4BqavvWEC8zfPbA7/9Mq2gOkNbX5iysGkzUXEn8kC4+uVWYeriP/fP78loAm2ujBJ+FbfpvhcFNdv8oE4Ni3fG18ei/X1pjnUj/E5fO6NVQzSM/4Z1/QtY537J6feaMuvR+xOxrFNdMj32uxj8Z0xkyS033/66MZkMmR1yfOZRIET4zSd5tmPDsU46kSdZ2++sdIwYVlznNRYfe3dom6Uz3uAPFawkG+ymYAz2aJPmVxB2C2OCc1/jNgVw5H7l09uin1k8WX9vh/sr+hTiD+TKVaE0jIg/kwSykymwMqPi7QsP579Pe8WfKmWM05VK11Xxne4xr81G3uNlJcl/gBIWsuX9s/vPxAxnv+9v85Nk0X80dJDzi3fon/4cYtm/8TJKOfUthYtrK1q4LO6sODv/m+sD4XueGdcUubZ3S3kkslGlnb/5PoWUt1a4g/WZZ0RMCMPO3bursoKIYUAWZpnBwyqSFNE/H3CNPGHYCETDSWEG+3qfY8+kZSDNt9PTiDJaHX5QbO6rFyzrlQaXw/usZlHBkQHrT73EMepH30ck6IBh/Dj0P5jamKOFxo8cEYA/SoJ+SBS5tKmFvbDTNtwly5fDus2bIorC5bH+5BNb+ozYvS7keDaBIq0aLrBMcvZDzj7MXBodmmvmWoRBonHlAbHJAvySL1wEAdkQ8RxEH8IBKZg5mivryN1o7+NKDO5o8wDhw5bltiPyMlyTK5Ij4zx70+NKww8P/3CwKzkyUqUH7/0CbjgamFm/cjqkTnKZhyYQ/OZ7vey6dNkvS1jIi0LXAa/PsKqmey5OX59VSpdFpvjycMEyZxNRtlzk3bpH0R7fnzS/kim0Vpi0sCPO3a5xGPawPMfPj0SSRH3mDSg5YTMQ3ohC9xzGZmCMKFZtTIeHr8vknJ7RvOKHIhL2tQHss7EAU3tZ01nA5MEy4fP5IJ6oBH04dQDcsGkAZIGCSLdsr0X40Tl/nf3RvtsZEJyIEKWP6/MWu1kkkQZEGDI3V8/vTlASE0uGk3iIXBowiGWniBbOvwsR//yf9mc/Q+wMUF4rXfC8pT9v2Fl4fv6pe8HzDwUiRwTrn8dekOTSzr6lnYz2fIrA8QVEX8rI4v4s6rAZWm4t1WBojhIrKUjL8/UjfFusphcEsZ4tjB8xg7jmrHFygX3jF1Lg4kT/Uleb+rDfgL6nEkf5B8y/ejEfUk+y5/nQ+bBl3J9mjmbW3BlHGHjjk+dLA1jmsk5E1n2z7DKQRwacurIRJbnKatOxWfumWgxgWKyNnXVqTBgZgs+tJ14MAE/Jgvsx2HiQfuIq+dC/j++tDXJw7igTlyMielrTydxEH+L411Oa/SpG+8c/U463r28uvjx7O95t0T8PSIF941A/NHI4xb/+LaEhKcnB2niH82AQoiaep827hW4di2eVLRt+Mik5ef27w97Jk0NaPtJf3TJ1zEO8x/iuMyt6v1ANPvhedmv/iOpE2ZCuM4g/mhKjWRBqPMcWiIGPBcaXu9aS/wh9hBOk4sPgUSzagSLciB+Pg33ZgKDyUXZNL7OaKCRw8SB+iMP0xPMW3DUwcg8ZhFz5i2M5BNTFasL6YwwoiU3xxI5acyliRcTDWsj8ijHVkUsj/fTxB9tuBFaS4dGmjIxg0o7fsBt9YI4I37evAjNOIQeZxM0wuxCtk1mSEe9zTGGiPdEgzjqaMTf+tDk4ZMnr87gQ9zRY8etmKiZJiw9/kiACQN58lwtzKwfvbkLE0FWhswZxjzXmz5N1tsyJtKywIRVFHOsshFmZmHpsphkEm8TT8tHv7NqkHZ5P4yEsxw/asGJhBTZDynE3xN4iLonR3kmMEaGkIt8NKWQ4HQdsmz8Ie6QBEhVOj3PaC/R4vqVCcIhSWifKcfqTJjfjIlMtKBG9Ex+rTLz2skEAkzQ8HL1fmdvrMfW65pVI/5L99wwVbAy0366v3imf/37mP4fQJpa70Q6T63/G74e6Tr6ZzS1tB3iZSTRxzMBIi7dT60l/mjq6U/6b8gXRxJiSJlFcazAUA8mhRBhqzNjxer7/vLmOKb8WLE4fModu7iFRPtw7vNs/Olz8lEeE0IINul5N1hhSF9MLLzsLBt/T/xNe295kA9BZyVszaEbkxPii4g/bQYf9kHYOIaU2yqNTfAg/tYGK/PpD6vbQT6/CkFam0z4jfxM6D9tOhsnxLZaZ3LBmv9BTESw4ad+rDJZPJN3MCUc36+yWRrz/Xj297xbIv4ekYJ7zE88ca7nvr00/pjh4Da+0LIfwNdh6S9uDyvuvCfW0Zv6LPibv495Tm3dVlH/89c1l2arv+GZ/okdf8xw9WpY9I8/ieY9PGPigyaf68LRY4EPbS27/dfhxOq1Mbk/VhRTJFxriX9ZU59YSAiRxDGYl69qqYuFex9NLWnMhMDHtZb4IwOtMuVi0sEKANqlrHI2bdkWl6vRyB86fDTZ4OsJc5k0vt788FEuJBTCg7aYsll9wDfTGzNtQSOOlgwCTDzOCCB1MmcrGfacJl6Eo3njhxVijCw07HlHPaaJP31gqxFWBpMH5GQddUo5kDpztX7AjXRDeu3C3AfzJxx4gJk5M73yGmTiwMuIv60smTx87MrZK8DEIe1s5ceHs9pDG/2eEIvnlCffRgs3vxZmWf1Yhvj7fi9KnybrbRkTaVlgwqTEHKtThOUR/xWr1sZ48PSOcc34Tjv7IUz7tmEScwn7kR2/tIXkQPy9SQ2E/LFJLXbVyMkjxMSZyYBpf7PIYRbx50cdbSk/6hCQEV9Vml+k62/PkCzyogmEkBMOEUKTiMkA2lC0hzaZQb6ZEtQqM6+dyGRSA27+sgkPxB/iZ3Us8tP9xTP9nyb+6fej1jtR7/8NX4+i+hLHBAozsKx0tjJjGFua1hJ/CDZEkzEB5miFGWPILYojHs04Y4rxwOSMvkcrbnWq5beG+CPTymJiYWWw8oPmO339+5s3VopIm0X8CWflivpzMeZsrBH31lfHE7MzTHIg1oQXEX/bk+HHL/dm7gPhxmyL8sCB1TtkcjFhTreDZ99eSDx5zQzQ8nofkk8aVvl8OPf0LeVafXw8pmSMJ793wMdzn+d4t0T889BJhZsZjCfbZe/5KBeuyH6fOBz29nly1z32ZExz+cyZ8OWf/nmSDoKOY/MueT3x5/nq5cvRrt9I/txvfxf7h4Ac4pf8yy+CtW/OLX8SjixcHOWxNwATH5yfbCz8wa1hxd29w9xv/UU8VYh40lq97WjS1hJ/6lKPMy12ZxN/zCQgsN7GHxtlXiw2h+Iw/yGNkU7CjPiYBrpMmiw8+GGD/KMNX79xczRdgfRisgKJw7GJl/pA5s2hXSYMl0UYs4i/10ZDdNkwbM5k+B9qi8OHPEOSzbHxFdMbb2pj+y8sjffr/QFHPisg3p06fSbuLyAsTfwJg0Rgw28rDmwyBCMj/jYx8SfyYA7E6keWow5g5r8Nwb4SZHpzHss7f9HXMc7LY5wwnnC1MLM+KEvk601vYxaTGhzEv7VjIi0LTGoRf1/WiZPNESs/gbIJ95yvFsT6+T/pH0SeMRfgB5fNkjyjqePZE3/Ii+VNE39+1PlRtnjvY9dOeny0cj7O7rOIv8Vhd2yTEk8eMUNCi4wG0tLiU4884o8mE9Jvcpgc0E57Njl5Zea1k5UFfxqJyTEf4p9HjC2N+b6v7J4x4f+fpP8HkK7WO5HOU0thYGXjW93y/M4k/uk6YE6Wt0m3KM6Iru97NOmMqbzJAGOLMZCuA895Gn/TzkPAmSCmNfRZsnxYHvEnDast1IeJjN9zYPnR4qNFt7HJKhnj3TTjmM7wTPppa1pIN5MDy5/lY8Zn741fLclKa2EmO22qY/Hm28TE/u9YOD5mRbTTKxx8/N2j98TJjg/z9348+3veLRF/j0jBfbsc59l8KpP8Q/r5sq+5og94NW9sOe3i0omTYc/kqWHfRzOTzbVbXn8zk/gfWdRC5DkmFNnnD7ccy7d3Wsu3CWzvAM9rf/94sGe+AxAnFXwM6/KVsGv8+2H7yDFxIsEpQvO++734AbH4TYFr18LBL74Mh+fd+OFtLfEvc5ynYYXfXsQfrXX/l1+tuLw2F40TL43ZprPRlWfMetC880PEMyTFCBxmNmaKhB0zH0GyZ5uolEnj22v3W7btSMq3E4rMBAWNNM5OEGIDLhMMyBL1pZ64LAKYJv6QKdJDftHqswnYniFhZhrEikWWYyMmbWbjM9gZAWYDKiSQTb3IyzLTQF69P+Amn8nEzt174+k/tNm+05BF/DkrnjpQT+JJz3gw4k876VfiSAtuTBRsgpVut60wMTbRYG/ctCVq9JHpJzyWj03PlM1GRNKi1Wa8memWtSkPs6x+LNLg15s+TdbbMibSssC9iPinywIzm/Bi7kVb6Bf6x9uAG7b+x9DuIToQADRuaA5/NqRlWd1+gNGOFxF/M6Mgfdru1yYR/GhnaeuoQxbxh5ihZcS+HhMBT9jJY5rkLBv/POKPaQj1oI3YRKMl9MS/Vpl57TQTBkgY7SedP/2lM4h/rXei3v8bNl7wbZzk+a0l/pgBQUbtstUgyDFhnNYD2ebe4ug7JnuYUdkYwMSHuhXFEY8GGtkQTFYL/D4M4s30y5ux+TbXS/yZDLDSw6ZYu0+X6eVn3WcRfzTiZobH3gFWPzDRIT/tY3WMCQ0XWnt7R3iXaAP7aRijZiZj+XjHSI95EuOY99kmAmymNxMdW70jLKvOPgxlAmWyMmP9jE8a/u/wzjGZ4H3k/wxp6UfiMXuinkzyaR/vqo0DTISoG7iyj4H3+s6RN46P9XXgPs/x/1bEPw+dVHhrP+CFGDTgptHP2rxrpkAcm2mrA6Y9T/to+iP5dx9/Qnu/dVgL6Sc9kwFccixor1taTHYsz9Wr8fhOk73kn38emEgk7tq1sGfq9ESDv/r+h+NRoRbPZuE1j/RJ4vl4WDwKlARMAK5rl1tL/Mt8wMvqgm+n60CW8pxtCEWzm3ZGLHgh0pdtDCNPQvyvn/JDmCfS5EWTjd29d2iP2QRqsiF4tgnX0pVJY2nNh0BCUP0GTtNMeywg1kb2KZtNrtQFZ4TXa4qNiFs5aLltTwKrBZB3m2AgB9lFR1tShmFn3zfg+FBIsOWH0GYRYurAPynym8vT3LHfwhwnJZl8ymCM2ISNdN7Ux/LQB5wSwwSBeg56bURC/EnDJmnIPvK4MOfxm6ZNjvmsCBnupIeIZ9n3W3r2exjOpIfc2gSSNEWYZfUj5XGSkLlKG/+WiY7v96L0abLeljGRlkVbPfG3SZN97CxdFu3h9Bc7zpf89EvexDP9g2jP/Gjyw8rF0j2+EX+W+O8dW6nxZzOw5cU3W27yoVn3cWg6CU/bHPNjTbi/IF/kRUtJOEQAUw5Iu5dppM9v9CSe9BB/bJIrTX3OxE2NZj6EbNsUaFrfWmUiP6udkCSPH7LB0Orb3sQ//T/AxnTRO5HOU+b/hsm1duT59Bka7ax46yfD2NLYpMv3PStDxJvJh4+z/RoQRB/OShKElnxFccQzjiwvY8NO27E63XN9c2/azt7iGVtpjb9p9E2u+awcMFYg/pBTZJhGG7JrMvN8m0yaPPPXHb4cJzD2jM+KB+HIgkT79wqc/Z4FJlOW9x9e3BrvrQ6YwzGJsHjkYF9PPJp2wsGAi5OMLF+Rb6sDJtN8xoPtK7AwymO8mDzfDtL4/zlMUCwf9eFdZpJgedO+jeW0z/9LEf80KjnPl06fiRthjSyX9flyL5p2OzIzIePf6JUQ57XXP+BFGtJC7GvK73VL4Au5tTb6VsjpdUtY+MN/yJXNcaCLbv1Rbvy8v/yrwJ6BCpmuHUxuMBXKiy8V3uuWANbdyUFY0aanbY7TbWCjJ+SyyJVJU5Q/L446orXOI9d5+Xw4+xF8flYZbB+BT5d1Tz6/n8HSMLHyMi28vXw06WzCruU4lpNJjdWFSQIa5KwN45yklHVsZFYZYMSxg2Bf1iE7CyvL39GYWTll/LaMiTLyfZp0WcTRt7X6Iv2D6J8hDWly7uM7+x7NX57ZRVvqAkEwMpaW05Yy0UKjzQTHtNyyz76PW3vf3u9E2bp3VjpsusE5PZmg/KI4TGPQWrelfzqrjbXKoe1sUqe96bRMhNCM26lc6XgmCVn5LB3vB2fmpzfxGrZZR29a3np92sE7jrlhujzagdldXl/zobe8uHQ98t4liP9T/V+Jx2Bz0lveRRqUQY3sOvw4TxrfGnMftPgQeb7IW2TCQxxpSEueUiTZke6ekr5eM59GHpSqW/dBAO08/xBZmbEPf0H8s+zxu0+rVFMQyPoKa/pHUs/1HVHYXngVfWG0K0evxkzXjIf2Glc3u5yi94oPdNkKPL95eRdp8r5T05Xvpi+7U4g/J9n0FILdqO0AYzkh0BUIsB8A7QemPhwv6c1suqI+KrN9EDhwViSmUYkQfdOITmNG70yjvjNl6tWo71V7v+udQvypdNOAgSL/HbTSALZyQkAICIH2RKD5kkhMGbLQFWnom0Z0GjN6Z7rifWivMhv1vWrvd73TiD8Vt6MvG1Vr3h3rVe8Rnu09gCRPCAiBnouANLiNR+QaXSupMdN4Y6a9iHFPltPo71V7/sp0KvHHHKUtH/TqjsS8I+sMljLxac/XQbKEgBDwCFy+FoKIXOMQOfqCPmlkpzHTOOOlJxP19mxbd3iv2vOd71TiT8WPLVsh8t8OJj+QfrCUEwJCQAh0NAIsgfPjqM2bnU/qwBzsu5sZgsZM54+V9iTDPV1Wd32v2uN/facTfyqNllpmPzeOJa13VQDspOlvj+EvGUJACAgBISAEhIAQuHkQ6BLib/Bqw2/95F8beW30yBcCQkAICAEhIASEgBCoB4EuJf5UFM11POe/1y069SfPBKjXLREjafnrGdpKKwSEgBAQAkJACAgBIeAR6HLib5Xhq7N7P5wRCS6mLHET8M04Geh1S2w7GDAhApPu9kVe61P5QkAICAEhIASEgBAQAo2DQMMQ/8aBRDURAkJACAgBISAEhIAQEAI9DwER/57Xp2qREBACQkAICAEhIASEgBCoQkDEvwoSBQgBISAEhIAQEAJCQAgIgZ6HgIh/z+tTtUgICAEhIASEgBAQAkJACFQhIOJfBYkChIAQEAJCQAgIASEgBIRAz0NAxL/n9alaJASEgBAQAkJACAgBISAEqhAQ8a+CRAFCQAgIASEgBISAEBACQqDnISDi3/P6VC0SAkJACAgBISAEhIAQEAJVCIj4V0GiACEgBISAEBACQkAICAEh0PMQEPHveX2qFgkBISAEhIAQEAJCQAgIgSoERPyrIFGAEBACQkAICAEhIASEgBDoeQiI+Pe8PlWLhIAQEAJCQAgIASEgBIRAFQIi/lWQKEAICAEhIASEgBAQAkJACPQ8BET8e16fqkVCQAgIASEgBISAEBACQqAKARH/KkgUIASEgBAQAkJACAgBISAEeh4CIv49r0/VIiEgBISAEBACQkAICAEhUIWAiH8VJAoQAkJACAgBISAEhIAQEAI9DwER/57Xp2qREBACQkAICAEhIASEgBCoQkDEvwoSBQgBISAEhIAQEAJCQAgIgZ6HgIh/z+tTtUgICAEhIASEgBAQAkJACFQhIOJfBYkChIAQEAJCQAgIASEgBIRAz0NAxL/n9alaJASEgBAQAkJACAgBISAEqhAQ8a+CRAFCQAgIASEgBISAEBACQqDnIfD/AdYT4YDdaIK8AAAAAElFTkSuQmCC;" vertex="1" parent="1">
          <mxGeometry x="3217" y="2973.92" width="1127.67" height="163.41" as="geometry" />
        </mxCell>
        <mxCell id="9_KCnbI3byb7aFg2Pdaz-349" value="" style="shape=image;verticalLabelPosition=bottom;labelBackgroundColor=#ffffff;verticalAlign=top;aspect=fixed;imageAspect=0;image=data:image/png,iVBORw0KGgoAAAANSUhEUgAAAbgAAAAsCAYAAAAXSq1SAAAVYUlEQVR4Ae2d93McR3bH7w9yuVx2uVyucrlsl/2Dr/yLXbZ1cslnne50d5JYPKWjKFGiSDFIJEVSzOQxijmIOYsBzGLORCCIHEgEAkQgACK169ODN+gdzO7M7mKXIPm6ajEzHV6//k7v+8573bP4mdGkCCgCioAioAi8hAj87CUckw5JEVAEFAFFQBEwSnA6CRQBRUARUAReSgSU4F7K26qDUgQUAUVAEVCC0zmgCCgCioAi8FIioAT3Ut5WHZQioAgoAopARgTX09VvbpxuNbuW1ZvFn5Sb6b8uMZN+UWQ+e+3V/oABWIAJ2IARWGlSBBQBRUARyD8CaRHcw6pua7iVzOITOVhBdmCnSRFQBBQBRSB/CMQmuEPfP3rlPbRsPVQw1KQIKAKKgCKQHwQiCQ7Pg5BbtsZd23teH1iqN5efya29KAKKwKuNQEqCqyjqtGtKSk7xQ5JxsGKdDmw1KQKKgCKgCOQOgaQEh5eBIY5jsLVO+gQIturJ5W5iq2RFQBFQBJISnIYl0yetdIkejDUpAoqAIqAI5AaBUILTDSW5JzchQ914kpuJrVJffgTaegfNw6eDprpj0FTpJ68YgDnYcw/GchpBcITNxPjqMT9Ep6HKsfwVUd3GGgK9A8YaVyW1sUHsEF3fGOW5EQTHO1uZENuiCeWmrsJ71+vcgeaMZGTS78vQBsw1KQKKQDwEMKhKbmMLA+7JWEwJBMevbmT6End9Zbdpbew1J7Y32nH+sKQuI5Kj/yn/W2wmv1Ec2j6q/HkS3pxxD0zx9Q6T7tgZU9xfPDlecMZ8v2mbae/QXZj5/kL19Dwzu/YeNE3Nj1N23T8wYPr7X8xfsBkcHDSbt+82pWUVKccohenWl3aZHgmJKbmNTQxShSsvXLpiNm7daaqqazO99Rm1SyA4floqU4Kg92sFrWbar0qsIgfWPcxIVsHOJtv+WXd/aPufjrYMlQ+Elmeq/2i0Wz2tyupWeKU9bd3APk6aNPUb8/qb75j6hw1xqmdUp+DsBfPDngOmq1t/fcUFsLX1icX+zr0iN9s/x9gf/vGkeePX75l3P/jUz3+RTp60tdsxrv5+s1W7+XGL2XvgiOnqCp8LwfpRY42SF9V+LHpvJ+8/NQfudLzyxJvMi9t38KidU59N+doUlZRG3eJRLU8guEzDk5DD+YPDT7XdT/vNnPcepG3kkXNql0dwjHLjnJoRMvqHgr1P28MJcDSIKlMZ2RBc3DBlPgjuw0+n2AkZ5amM6kx8AYSlIrjOzqdm4pczLW6/Gz/hhSU4bgMkJB7orTuFdkyPGoa/l8Fb5dYPlgWv48gLtnGvc7GhpLS13/znvDJzpaYnI5L6YGOtbT/WPctsxxk1Pu5NWJoyc66ZPH12WFHO8xIILttXA/DgSOV3O0cQU1zScAmOsKfbbsPsGh8Ql+BY/2us7TED/YOm99mAqSjs9EOcWxfUGkjx1rknpquj3wwOGkMoEQJuqPHaUH5mb5OBmN1NNqnkohf6tDX3WZmEGM/tb7b6ZeLBxX1lQAiOUOX4P35uvQXyML6kS1dvmLfHfWwOHD7mY8UTFHlXrt+yee0dHWb2/CXmV79/37b/5Ivppryy2pa9/8lka9DwEt9650Oz5E9rbX5vX59ZsWaDNdx4KLQpLL7v9xFV7ldkflRWW9lHjxeYd96faHXAY6iprTcfT/rKXqNHVU2d3wyynbNgmfnl2+PNuI8mmZ17DvhleE0TPp9mNm/fZce0buM2W3b+4hWbj75gRD1wwNMiYcTpF0JirItXrDHdPT2+XPqf+vU8qw8e2elzP1lswjy4iqoa8+WMOaaxqdmsWL0+JcFJv4yd8WAA3IcJzuX+oBvywFcSeXsOHPGxol9I5pt5i62ulKOrpHTry1gLzpy3+jEXmCvoFJakPmXzF//JrFy70R4ZG7jKXEwl79DRE4YHK+7V51/NMjdu3w3rKiMCijLMxc195s/eu2MKSrsykn/rUa+5Vvcso7ZRuo1mebbjjKNL8KYxN5g/Yk/u3Cv2v/8Hjxy333/uOynVvM/EZiAzgeCyfbFb1t8QDNm55MS5eHktDc8M5BEs51oITshoxm9K/Xp15d2WTPp6B40QHDr39gxYgKrvd5nmes9A1ZZ55Lhn5fAGDsKekNrMt0tNZ5tnMDqe9FlSG7J5hmv0iJILQUKopJZHzyzR2QtjTCYER39xkhAcEwaSwSBwjiEmYUS4Jt4tacOWH2yeGD0MKnUwiBh1zpHT19dn5i5a7svE0BCqJM2YvcDWgyDIpw2funrv9zWjykUXjsX3H9i2GD9Ibvnq9fYaHSAnyBvjCGmRep49s2SOoT5yrMDWoW+MImn7rn22PYSB4S++X+b3ga7IW7B0pa1DOyE4yJs+IUseAjif+e1CK5PwLGPlQz+btu30cQkjONto6E8UwS1YusrqsnXHHmv8pR/0gmAxCtLvtp17bb+QuyTBnnEzXq7Rffrs7wzhZR4SyAM3Urr1kQXODxsajcwd8ME4hSWpT5nMT3D88cQpO0fpnxBnMnknT5+zOi5avsbeK5FRMfTQ5faZzMiuOPXY/M2EQktUf/XhPfPp9jpT2T5gSWfpycfmP759YP5nYYX583F3zC8WVJirtR4h/ff88oR2yJiwpc62+2hTrRm3rsYnror2AfOPXxabjRef2DxCk3/3WZH9jP9+uB46lj3pN79dVWXQBfL856klhvaiP2TztxOLzL98VeLnUfbummrbB3q+tdxr/68z7htIlPIPN9aav/zAk0n7dedb/fap+kw1TuTuudlu/v7zYqsrY9p/u92XS/k/TC428442mn+aUmLrvL6wIqGcOnyCibU35jO26uyFS/ZBXL7/zBseSn+6fC1y3kubuDZD9EgguEw3mAhRCcHJsauz39y71G6Ob2u0hEen9y63280o7LiUdu5RCE7I8NKxFlsPooOEKouemmfdAz7BSV/UFzmPH3lf7Cm/LDFCcE+aev0NNCu+qLTjZ1OMtDm03jPUQnBRcsO8tdpyb50iE4ID+zhJvvysi5BYi8OAQAikOARHXdrIRpW7hcUGI9PR6W1cCYYoebKiPkZXPByIiad6ns6jyq1izh+ZrBcuXfVzmbhC0mRCrHwBSJev3bT9YyAlQU4QGkkIrmXIiyUPY4m+rueD0WUcEAkExvmxk6dFpP0CktfW3mH4YnLuLoqjE3nZEByGHhkQhiS8P8iJe4kHbvt1vFewJg/Pm8Q5JCpJHkoGBrwHvZLSMlunrMJbE063vktYcUKKbn3mJw8i8hAhcwPjRgqTRyRCHiyo09vba++dO0YZqxjS4HF5wWOz+myLOV/RbVadabFGeO25Fmt0Zx1ssNd/WF9jdlxrs6Tz9YEGW3axqtscLuy05esvtJpTD7p8b4z2EA2hPfr74XqbrXenwSOb+y395njJU/N/SytHhCjnHG40fzH+rpWNTjP2N5iKtmGCK2zyvEbquGMhVPrvcx6YqXse+TpBupA09SbvrDc7r7eZM2Vd5o9bam2d6/WePqn6TDVOyB4ShpAP3u00b6+ssqTv6gUOfOhz7612I/i5dTgPS6y94dlLku+/PHCTHzXvpU1cmyF95YTgII2VUyotqUEibsLzwbsjHCjk4h6F4LZ+V2tJDDKj/OKP3uaSlV9WJhBc2R3PKCOPvtz+Nn1b4xOcECWyTu7wDKVLipNe9whGCC5KLmFQ0qqplf44di33vMV8EJwbvhPCQp84BDdr/hJrADF8xMYxthh1SUGC4wmLuktXrpMqCceo8oTKjgfnrusQdlyzfotfFa+LPkl4OpxjyOXDNR+MIQQH2bqJEKf7paJMiALje6/ovm3Pk6XIlIeHm7fvWY8tKBOPgj6zITgeJpAhnq+rM+fsYAz229DYbNugF4n2LjGvXLfJMF5JUh+jkEl9l7DCCEn6kaNbHwyZX25ifkpIOSiPcC3j4d64iXuCJxpMQYPqXkNE2662mSUnmy2JTdpRb0lBCA4Ph/q/X11tXvuu3CeWZKG7B6391qivHfKSMPyQj9sn52FrcLMPNfgE53pu0hZdvtz10KCb5HGE4KbsfmSOFnmkK3nT9z3y6+HNodPco42WmCAc6kX1mWycyIbgFp9oskT63Y9N9hqyE908j7LSv5b84DF4v7hORnDuA2vUvBeCi2szRI8EghutEKVLWHIOsUFCklxykTocXYI7tdtb2N48t9YQXpSwpOvBEZYkEZrEg+IjYUfIRzy4C4eGPTx2eJKunBwOo371phciFIKLkltT6vW7ZGKFT3CQMikTgks3ROnuosT7wUiQhOAILUlav3m7LZcnJkJXeIASyqItRrWtrd02CRIcT9/UYW0lLEWVB9vIZMUQS0pFcIQt6R8ClA/hVZ7w8SghODBwE18q1yugbM/+w1YOBHft5h17jiEVmavWbbKhWDwq+gzKrK17aNtkQ3DXb921Mtyxu3qH9SubW3jKJYEFDwCS4hBcOvVdwgoSkvTpHt36EByYuom5lYzgePWC8RBBcBOhczy7YAoaVLmGKDDChNAIReIZfby51hpkygixSV3Clz+fWepfJzP81H9zWaUNaZa39VuZhEJFjhzDCA4v77/mlVmiQK9PtnphT2mT7AjB4e0R/qQd9QipQoacv7W80ub/29eldpwQ09YrXsg0qs9k4yQsCl7g5n523xwOU6LLytOeR5xMd/LDUjKCc78DUfM+XZsheiQQ3GhtMoHMXNKSc/IJ/aV6T8wlOEKMhCWFGCE8ZLkEJ6FM97WEuePLzPpZ1QbSCiO4eX8os+NnQ4qs8RVd9TwYIbgoueJRusRJ+JWUCcGlu8kkGcHhwmMwWGeTROiPPAiOkB2hK/EgCEvixVAu7r8QnHiJ1KUcEpLQE0b+m7mLDBs5ospFDzmmO1nRm/47n3oPFcjBMD5u8TY1hREcXxgMr+AEERLSRA5jENKQjTfIJMQnOwJZy6Ju65M2UducOHXW5mVDcDxEIFceNhDOVnvIlxCrPCyQJ0nCN+hGon06hJVufZewhOBq6obXskUvObr14xKcK4+Q5jInOsD9gdxYNw2mMONK6A8DTIiOcjwmDDZraFzHJTjCjUH5kAckwloXx5LHfSPqhBGcyCEUSf+0dT0idEbmlsseOUl9CG5mEoK7WN1j5chmGEjQJTiRkaxPIbjgOL/YWW/xCvM0RSb4CpFKXtgxeL+4jkNwUfM+XZsheiQQ3Gi9JsDaWzKSE7JLdnQJjjqVQ/9WBqKD8IIEt+CjckuCbPiAdM7ua7a7JqkPeYURHDJKbw2H5KjLhyQEFyUXz03aFV5uNyU3huVlQnDZvCbgenC4/Rg0Png57HyTayE4CWlCDHh80l6eqFjfog0eHm0wOLK7kh1767fs8HfX8UJwVLlMNjmmO1khGXTGeMoGEgwghEsKIzjWq1iDw/iy0YT2XDMu9CVB7Iwdbw4yn7twuS2nP8iGtmz9590dSEZwy4bg6JdxIAuZrJdxTV941hAbZfRbWFxqdUNHN1zHGPJFcLKGhpfohocsgEN/0iG4MHmEpxgTG1t4+CJSwDXebjCFGVU2k/z1x4UGQ02YEg8Iwx+X4JDJOtfEbXWGdTXZnEI+RARZsrEj2caKMIJjnYy1N2RAKOhDnuifag0uKcFVdVs5hCQJU76xuCKB4KL6TDZO0W/a3kcGEoTEFx5vsueib64JLmrep2szZN4kEFy2L3rjwUBsJDy1ZCSWKl9e9N4yv9a2Z82NBNFJO9eDI4+6hDAl4ZltW+j9kooQXDAkyqaOIxsbDKFI1tuWfeYRVkert4sySi7lbExhRycJm5mNBxf3RW/ZwejGr4WgZPxiMDASGHUhOfEaMNBi7KmDQXVDRIToxNuZNmu+FcsaHYaY+tLGXQeKKhfdOEJSyBBCJQ+yWrthq18NA04dSfcflNuneukfL1O8sx27948IJ9IOkmIHJN4B4+NDeyE4NtmwBikywfHqjdvSpd0QgXdBOUZ8175D9jzZbkJpKK9TyHXwiCcqO1mRzb2AzCTx0ACBi17cc9lgQh3y4xGcF6lIt75LWPQnO1B5IAhLbn10DQtR8gswkoLyuB+QmjxAgEdwTU7aisENHhcdb7JEBJGwu5AdgXFDlMhi3Qkioz1hQFf+O2uqbf6Gn4Z3LFLOOh713Q/9UgbZkg8x8PndquoEmUVDrybQp9uXeHAFTogSYmVdjnqiC7LZGclRPKuoPmmfbJwLjjVZPWUsPDBAwqJbNgSH3XDXw8O+/9zfVPM+rE2UzUBmAsFl81NdbO5g+7+8C8c7YkJI+TrO/G2pmf1ueHjU1QFPkPfd8OJk5yhkR2LziFuX8yi5kDqbVILt4l6jQ9yf6rJKxvjDln9CeGLMw5rwcrKsu4WV85NTwfbIlXfuwtpElYe1SSeP3Y9xfmGF96hYo3OJAVKRnZdun4Rt3XpuGeeQN1iMdgIr7kGyxDjdXaDJ6uUjH13l5e/R6C9MHnMt1X2gXzG4YUfWyTJ9WTtMXrZ5eENny7sMemUry20P8dwe2snp5nOeTZ+EKC9UdpsbQ7syg7LjXI/G3BjNeZ9AcCiXaZiS99p4MZv1sqC3FNfQ57MeupLwvMQLI8yJx5hPPegrbnhyNCbPqyID7xCPgA/ExkYHPBnXU31VsHiZxpmLXzKJY7i1TvTvXyb7JZPnOf9GEJz7Sx75NvT57u/wxgbrxRGm5Dcuvx0X7f3lQkf9dzm5+QoQ1+c9PcJfu/cd8n+tJTe9qdR8IDAWf4tSyc8jv2S/RZmPeZGsjxEER0X9h6eZhxvTJUD9h6fJpqbmKwIjEdD/JhDtST0vwk313wRG3sn85IQSHF1n+8pAuob+Vawf99WA/EwF7UUReDEQUC9u7JHcWPTemM1JCY6wWbYvfr+KpBV3zGCrockXw6CqlmMLAf6hiJLc2CE57sUL8x+93alcUdSpJPfa6IcrITew1aQIKAKZI0BIDOOqG0/yT3ZgDvZjMSzpzqikHpxUwsvQcOXokRxYqucms0uPioAioAjkDoFIgpOudeNJ9iSnG0pkNulREVAEFIHcIxCb4FAFz4N3tuTl6LjrTa9yPbACM/Xacj+ZtQdFQBFQBFwE0iI4acivbvDTUhhuQm6sKSnpFVkMwAJMwAaMRvsXSuQe6FERUAQUAUUgNQIZEVxqkVqqCCgCioAioAg8fwSU4J7/PVANFAFFQBFQBHKAgBJcDkBVkYqAIqAIKALPHwEluOd/D1QDRUARUAQUgRwgoASXA1BVpCKgCCgCisDzR0AJ7vnfA9VAEVAEFAFFIAcI/D+eOt+IsiBpnwAAAABJRU5ErkJggg==;" vertex="1" parent="1">
          <mxGeometry x="3247" y="3042" width="748" height="74.8" as="geometry" />
        </mxCell>
      </root>
    </mxGraphModel>
  </diagram>
</mxfile>
